%TF.GenerationSoftware,KiCad,Pcbnew,7.0.11-7.0.11~ubuntu22.04.1*%
%TF.CreationDate,2024-03-05T10:23:26-06:00*%
%TF.ProjectId,sg90-breakout,73673930-2d62-4726-9561-6b6f75742e6b,rev?*%
%TF.SameCoordinates,Original*%
%TF.FileFunction,Copper,L1,Top*%
%TF.FilePolarity,Positive*%
%FSLAX46Y46*%
G04 Gerber Fmt 4.6, Leading zero omitted, Abs format (unit mm)*
G04 Created by KiCad (PCBNEW 7.0.11-7.0.11~ubuntu22.04.1) date 2024-03-05 10:23:26*
%MOMM*%
%LPD*%
G01*
G04 APERTURE LIST*
G04 Aperture macros list*
%AMRoundRect*
0 Rectangle with rounded corners*
0 $1 Rounding radius*
0 $2 $3 $4 $5 $6 $7 $8 $9 X,Y pos of 4 corners*
0 Add a 4 corners polygon primitive as box body*
4,1,4,$2,$3,$4,$5,$6,$7,$8,$9,$2,$3,0*
0 Add four circle primitives for the rounded corners*
1,1,$1+$1,$2,$3*
1,1,$1+$1,$4,$5*
1,1,$1+$1,$6,$7*
1,1,$1+$1,$8,$9*
0 Add four rect primitives between the rounded corners*
20,1,$1+$1,$2,$3,$4,$5,0*
20,1,$1+$1,$4,$5,$6,$7,0*
20,1,$1+$1,$6,$7,$8,$9,0*
20,1,$1+$1,$8,$9,$2,$3,0*%
G04 Aperture macros list end*
%TA.AperFunction,ComponentPad*%
%ADD10C,4.400000*%
%TD*%
%TA.AperFunction,ComponentPad*%
%ADD11O,3.000000X1.600000*%
%TD*%
%TA.AperFunction,ComponentPad*%
%ADD12R,1.700000X1.700000*%
%TD*%
%TA.AperFunction,ComponentPad*%
%ADD13O,1.700000X1.700000*%
%TD*%
%TA.AperFunction,SMDPad,CuDef*%
%ADD14RoundRect,0.150000X-0.625000X0.150000X-0.625000X-0.150000X0.625000X-0.150000X0.625000X0.150000X0*%
%TD*%
%TA.AperFunction,SMDPad,CuDef*%
%ADD15RoundRect,0.250000X-0.650000X0.350000X-0.650000X-0.350000X0.650000X-0.350000X0.650000X0.350000X0*%
%TD*%
%TA.AperFunction,ViaPad*%
%ADD16C,0.800000*%
%TD*%
%TA.AperFunction,Conductor*%
%ADD17C,0.500000*%
%TD*%
G04 APERTURE END LIST*
D10*
%TO.P,M1,*%
%TO.N,*%
X103200000Y-95300000D03*
D11*
%TO.P,M1,1,+*%
%TO.N,/motp*%
X103200000Y-98800000D03*
%TO.P,M1,2,-*%
%TO.N,/motn*%
X103200000Y-91800000D03*
%TD*%
D12*
%TO.P,J1,1,Pin_1*%
%TO.N,Net-(J1-Pin_1)*%
X108800000Y-92760000D03*
D13*
%TO.P,J1,2,Pin_2*%
%TO.N,Net-(J1-Pin_2)*%
X108800000Y-95300000D03*
%TO.P,J1,3,Pin_3*%
%TO.N,GND*%
X108800000Y-97840000D03*
%TD*%
D14*
%TO.P,J2,1,Pin_1*%
%TO.N,Net-(J1-Pin_1)*%
X111875000Y-93300000D03*
%TO.P,J2,2,Pin_2*%
%TO.N,Net-(J1-Pin_2)*%
X111875000Y-94300000D03*
%TO.P,J2,3,Pin_3*%
%TO.N,GND*%
X111875000Y-95300000D03*
%TO.P,J2,4,Pin_4*%
%TO.N,/motn*%
X111875000Y-96300000D03*
%TO.P,J2,5,Pin_5*%
%TO.N,/motp*%
X111875000Y-97300000D03*
D15*
%TO.P,J2,MP,MountPin*%
%TO.N,GND*%
X114400000Y-92000000D03*
X114400000Y-98600000D03*
%TD*%
D16*
%TO.N,/motn*%
X110400000Y-98100000D03*
%TO.N,/motp*%
X111500000Y-98300000D03*
X111500000Y-99100000D03*
%TD*%
D17*
%TO.N,Net-(J1-Pin_1)*%
X109340000Y-93300000D02*
X108800000Y-92760000D01*
X111875000Y-93300000D02*
X109340000Y-93300000D01*
%TO.N,Net-(J1-Pin_2)*%
X109800000Y-94300000D02*
X108800000Y-95300000D01*
X111875000Y-94300000D02*
X109800000Y-94300000D01*
%TO.N,/motn*%
X110400000Y-98100000D02*
X110400000Y-98339239D01*
X111100001Y-96300000D02*
X110400000Y-97000001D01*
X106100000Y-98100000D02*
X106100000Y-93400000D01*
X104500000Y-91800000D02*
X103200000Y-91800000D01*
X109539239Y-99200000D02*
X107200000Y-99200000D01*
X110400000Y-98339239D02*
X109539239Y-99200000D01*
X111875000Y-96300000D02*
X111100001Y-96300000D01*
X107200000Y-99200000D02*
X106100000Y-98100000D01*
X106100000Y-93400000D02*
X104500000Y-91800000D01*
X110400000Y-97000001D02*
X110400000Y-98100000D01*
%TO.N,/motp*%
X111875000Y-98725000D02*
X111875000Y-97300000D01*
X111875000Y-97300000D02*
X111875000Y-97925000D01*
X111875000Y-97925000D02*
X111500000Y-98300000D01*
X111500000Y-99100000D02*
X111875000Y-98725000D01*
%TD*%
%TA.AperFunction,Conductor*%
%TO.N,GND*%
G36*
X116943039Y-90919685D02*
G01*
X116988794Y-90972489D01*
X117000000Y-91024000D01*
X117000000Y-99576000D01*
X116980315Y-99643039D01*
X116927511Y-99688794D01*
X116876000Y-99700000D01*
X112292765Y-99700000D01*
X112225726Y-99680315D01*
X112179971Y-99627511D01*
X112170027Y-99558353D01*
X112187771Y-99510028D01*
X112225788Y-99449523D01*
X112225789Y-99449522D01*
X112285368Y-99279255D01*
X112286000Y-99273638D01*
X112313060Y-99209226D01*
X112318810Y-99202652D01*
X112340895Y-99179133D01*
X112343546Y-99176398D01*
X112363911Y-99156035D01*
X112366606Y-99152560D01*
X112374199Y-99143669D01*
X112385142Y-99132016D01*
X112405448Y-99110393D01*
X112415674Y-99091790D01*
X112426353Y-99075533D01*
X112439362Y-99058764D01*
X112457498Y-99016850D01*
X112462620Y-99006395D01*
X112484627Y-98966368D01*
X112489907Y-98945802D01*
X112496209Y-98927395D01*
X112504635Y-98907926D01*
X112511777Y-98862824D01*
X112514145Y-98851397D01*
X112525499Y-98807179D01*
X112525500Y-98807177D01*
X112525500Y-98785955D01*
X112527027Y-98766555D01*
X112530347Y-98745595D01*
X112526050Y-98700140D01*
X112525500Y-98688470D01*
X112525500Y-98112614D01*
X112545185Y-98045575D01*
X112597989Y-97999820D01*
X112624023Y-97992504D01*
X112623852Y-97991827D01*
X112631556Y-97989879D01*
X112631559Y-97989877D01*
X112631564Y-97989877D01*
X112772342Y-97934361D01*
X112892922Y-97842922D01*
X112984361Y-97722342D01*
X113039877Y-97581564D01*
X113050500Y-97493102D01*
X113050500Y-97106898D01*
X113039877Y-97018436D01*
X112984361Y-96877658D01*
X112982290Y-96874927D01*
X112981173Y-96871989D01*
X112980205Y-96870267D01*
X112980463Y-96870121D01*
X112957466Y-96809618D01*
X112971891Y-96741254D01*
X112982291Y-96725071D01*
X112984361Y-96722342D01*
X113039877Y-96581564D01*
X113050500Y-96493102D01*
X113050500Y-96106898D01*
X113039877Y-96018436D01*
X112984361Y-95877658D01*
X112984360Y-95877657D01*
X112984360Y-95877656D01*
X112892922Y-95757077D01*
X112772343Y-95665639D01*
X112631561Y-95610122D01*
X112585926Y-95604642D01*
X112543102Y-95599500D01*
X111206898Y-95599500D01*
X111167853Y-95604188D01*
X111118438Y-95610122D01*
X111093206Y-95620072D01*
X111032465Y-95644025D01*
X111004908Y-95649713D01*
X111005141Y-95651182D01*
X110997428Y-95652403D01*
X110977050Y-95658323D01*
X110958009Y-95662266D01*
X110936954Y-95664926D01*
X110936938Y-95664930D01*
X110894487Y-95681737D01*
X110883441Y-95685519D01*
X110839600Y-95698256D01*
X110821328Y-95709062D01*
X110803862Y-95717619D01*
X110784129Y-95725432D01*
X110747194Y-95752266D01*
X110737435Y-95758676D01*
X110698133Y-95781920D01*
X110683127Y-95796926D01*
X110668337Y-95809558D01*
X110651168Y-95822032D01*
X110651166Y-95822034D01*
X110622057Y-95857219D01*
X110614197Y-95865856D01*
X110000483Y-96479570D01*
X109987910Y-96489644D01*
X109988065Y-96489831D01*
X109982058Y-96494800D01*
X109934133Y-96545834D01*
X109931427Y-96548626D01*
X109911090Y-96568964D01*
X109911077Y-96568979D01*
X109908373Y-96572464D01*
X109900806Y-96581323D01*
X109869552Y-96614608D01*
X109859322Y-96633214D01*
X109848646Y-96649465D01*
X109835640Y-96666233D01*
X109835636Y-96666239D01*
X109817508Y-96708131D01*
X109812369Y-96718620D01*
X109790372Y-96758631D01*
X109790372Y-96758632D01*
X109785091Y-96779200D01*
X109778791Y-96797602D01*
X109770364Y-96817074D01*
X109763223Y-96862163D01*
X109760854Y-96873601D01*
X109749500Y-96917818D01*
X109749500Y-96939045D01*
X109747973Y-96958445D01*
X109744653Y-96979404D01*
X109748950Y-97024859D01*
X109749500Y-97036529D01*
X109749500Y-97594931D01*
X109730494Y-97660903D01*
X109674211Y-97750477D01*
X109674209Y-97750481D01*
X109614633Y-97920737D01*
X109614630Y-97920750D01*
X109594435Y-98099996D01*
X109594435Y-98100002D01*
X109600392Y-98152874D01*
X109588337Y-98221696D01*
X109564853Y-98254438D01*
X109306110Y-98513182D01*
X109244790Y-98546666D01*
X109218431Y-98549500D01*
X107520808Y-98549500D01*
X107453769Y-98529815D01*
X107433127Y-98513181D01*
X106786819Y-97866873D01*
X106753334Y-97805550D01*
X106750500Y-97779192D01*
X106750500Y-95300002D01*
X107544723Y-95300002D01*
X107563793Y-95517975D01*
X107563793Y-95517979D01*
X107620422Y-95729322D01*
X107620424Y-95729326D01*
X107620425Y-95729330D01*
X107644948Y-95781919D01*
X107712897Y-95927638D01*
X107712898Y-95927639D01*
X107838402Y-96106877D01*
X107993123Y-96261598D01*
X108172361Y-96387102D01*
X108370670Y-96479575D01*
X108582023Y-96536207D01*
X108764926Y-96552208D01*
X108799998Y-96555277D01*
X108800000Y-96555277D01*
X108800002Y-96555277D01*
X108828254Y-96552805D01*
X109017977Y-96536207D01*
X109229330Y-96479575D01*
X109427639Y-96387102D01*
X109606877Y-96261598D01*
X109761598Y-96106877D01*
X109887102Y-95927639D01*
X109979575Y-95729330D01*
X110036207Y-95517977D01*
X110055277Y-95300000D01*
X110036494Y-95085305D01*
X110050261Y-95016807D01*
X110098876Y-94966624D01*
X110160022Y-94950500D01*
X110995018Y-94950500D01*
X111040506Y-94959145D01*
X111118436Y-94989877D01*
X111206898Y-95000500D01*
X111206903Y-95000500D01*
X112543097Y-95000500D01*
X112543102Y-95000500D01*
X112631564Y-94989877D01*
X112772342Y-94934361D01*
X112892922Y-94842922D01*
X112984361Y-94722342D01*
X113039877Y-94581564D01*
X113050500Y-94493102D01*
X113050500Y-94106898D01*
X113039877Y-94018436D01*
X112984361Y-93877658D01*
X112982290Y-93874927D01*
X112981173Y-93871989D01*
X112980205Y-93870267D01*
X112980463Y-93870121D01*
X112957466Y-93809618D01*
X112971891Y-93741254D01*
X112982291Y-93725071D01*
X112984361Y-93722342D01*
X113039877Y-93581564D01*
X113050500Y-93493102D01*
X113050500Y-93106898D01*
X113039877Y-93018436D01*
X112984361Y-92877658D01*
X112984360Y-92877657D01*
X112984360Y-92877656D01*
X112892922Y-92757077D01*
X112772343Y-92665639D01*
X112631561Y-92610122D01*
X112585926Y-92604642D01*
X112543102Y-92599500D01*
X111206898Y-92599500D01*
X111173713Y-92603485D01*
X111118436Y-92610122D01*
X111068501Y-92629815D01*
X111040506Y-92640854D01*
X110995018Y-92649500D01*
X110174499Y-92649500D01*
X110107460Y-92629815D01*
X110061705Y-92577011D01*
X110050499Y-92525500D01*
X110050499Y-91878482D01*
X110050498Y-91878475D01*
X110035646Y-91784696D01*
X109978050Y-91671658D01*
X109978046Y-91671654D01*
X109978045Y-91671652D01*
X109888347Y-91581954D01*
X109888344Y-91581952D01*
X109888342Y-91581950D01*
X109811517Y-91542805D01*
X109775301Y-91524352D01*
X109681524Y-91509500D01*
X107918482Y-91509500D01*
X107837519Y-91522323D01*
X107824696Y-91524354D01*
X107711658Y-91581950D01*
X107711657Y-91581951D01*
X107711652Y-91581954D01*
X107621954Y-91671652D01*
X107621951Y-91671657D01*
X107564352Y-91784698D01*
X107549500Y-91878475D01*
X107549500Y-93641517D01*
X107560292Y-93709657D01*
X107564354Y-93735304D01*
X107621950Y-93848342D01*
X107621952Y-93848344D01*
X107621954Y-93848347D01*
X107711652Y-93938045D01*
X107711654Y-93938046D01*
X107711658Y-93938050D01*
X107824696Y-93995646D01*
X107824698Y-93995647D01*
X107918475Y-94010499D01*
X107918481Y-94010500D01*
X108068139Y-94010499D01*
X108135177Y-94030183D01*
X108180932Y-94082987D01*
X108190876Y-94152145D01*
X108161851Y-94215701D01*
X108139262Y-94236074D01*
X107993118Y-94338405D01*
X107838402Y-94493121D01*
X107712900Y-94672357D01*
X107712898Y-94672361D01*
X107620426Y-94870668D01*
X107620422Y-94870677D01*
X107563793Y-95082020D01*
X107563793Y-95082024D01*
X107544723Y-95299997D01*
X107544723Y-95300002D01*
X106750500Y-95300002D01*
X106750500Y-93485503D01*
X106752268Y-93469491D01*
X106752026Y-93469469D01*
X106752760Y-93461706D01*
X106750561Y-93391722D01*
X106750500Y-93387828D01*
X106750500Y-93359078D01*
X106750499Y-93359071D01*
X106749950Y-93354725D01*
X106749031Y-93343062D01*
X106747598Y-93297431D01*
X106741676Y-93277050D01*
X106737731Y-93257995D01*
X106735072Y-93236949D01*
X106735071Y-93236947D01*
X106735071Y-93236942D01*
X106718267Y-93194501D01*
X106714484Y-93183452D01*
X106701745Y-93139602D01*
X106701142Y-93138583D01*
X106690936Y-93121324D01*
X106682378Y-93103855D01*
X106674568Y-93084129D01*
X106647721Y-93047179D01*
X106641331Y-93037449D01*
X106618081Y-92998135D01*
X106603075Y-92983129D01*
X106590435Y-92968330D01*
X106577961Y-92951160D01*
X106542780Y-92922056D01*
X106534140Y-92914194D01*
X106436319Y-92816373D01*
X106402834Y-92755050D01*
X106400000Y-92728692D01*
X106400000Y-91024000D01*
X106419685Y-90956961D01*
X106472489Y-90911206D01*
X106524000Y-90900000D01*
X116876000Y-90900000D01*
X116943039Y-90919685D01*
G37*
%TD.AperFunction*%
%TD*%
M02*
