%TF.GenerationSoftware,KiCad,Pcbnew,7.0.11-7.0.11~ubuntu22.04.1*%
%TF.CreationDate,2024-03-04T17:46:32-06:00*%
%TF.ProjectId,sg90-breakout,73673930-2d62-4726-9561-6b6f75742e6b,rev?*%
%TF.SameCoordinates,Original*%
%TF.FileFunction,Legend,Bot*%
%TF.FilePolarity,Positive*%
%FSLAX46Y46*%
G04 Gerber Fmt 4.6, Leading zero omitted, Abs format (unit mm)*
G04 Created by KiCad (PCBNEW 7.0.11-7.0.11~ubuntu22.04.1) date 2024-03-04 17:46:32*
%MOMM*%
%LPD*%
G01*
G04 APERTURE LIST*
G04 Aperture macros list*
%AMRoundRect*
0 Rectangle with rounded corners*
0 $1 Rounding radius*
0 $2 $3 $4 $5 $6 $7 $8 $9 X,Y pos of 4 corners*
0 Add a 4 corners polygon primitive as box body*
4,1,4,$2,$3,$4,$5,$6,$7,$8,$9,$2,$3,0*
0 Add four circle primitives for the rounded corners*
1,1,$1+$1,$2,$3*
1,1,$1+$1,$4,$5*
1,1,$1+$1,$6,$7*
1,1,$1+$1,$8,$9*
0 Add four rect primitives between the rounded corners*
20,1,$1+$1,$2,$3,$4,$5,0*
20,1,$1+$1,$4,$5,$6,$7,0*
20,1,$1+$1,$6,$7,$8,$9,0*
20,1,$1+$1,$8,$9,$2,$3,0*%
G04 Aperture macros list end*
%ADD10C,0.150000*%
%ADD11C,0.120000*%
%ADD12R,1.700000X1.700000*%
%ADD13O,1.700000X1.700000*%
%ADD14C,4.400000*%
%ADD15O,3.000000X1.600000*%
%ADD16RoundRect,0.150000X-0.625000X0.150000X-0.625000X-0.150000X0.625000X-0.150000X0.625000X0.150000X0*%
%ADD17RoundRect,0.250000X-0.650000X0.350000X-0.650000X-0.350000X0.650000X-0.350000X0.650000X0.350000X0*%
G04 APERTURE END LIST*
D10*
X105654819Y-91561904D02*
X106654819Y-91895237D01*
X106654819Y-91895237D02*
X105654819Y-92228570D01*
X106654819Y-92990475D02*
X106131009Y-92990475D01*
X106131009Y-92990475D02*
X106035771Y-92942856D01*
X106035771Y-92942856D02*
X105988152Y-92847618D01*
X105988152Y-92847618D02*
X105988152Y-92657142D01*
X105988152Y-92657142D02*
X106035771Y-92561904D01*
X106607200Y-92990475D02*
X106654819Y-92895237D01*
X106654819Y-92895237D02*
X106654819Y-92657142D01*
X106654819Y-92657142D02*
X106607200Y-92561904D01*
X106607200Y-92561904D02*
X106511961Y-92514285D01*
X106511961Y-92514285D02*
X106416723Y-92514285D01*
X106416723Y-92514285D02*
X106321485Y-92561904D01*
X106321485Y-92561904D02*
X106273866Y-92657142D01*
X106273866Y-92657142D02*
X106273866Y-92895237D01*
X106273866Y-92895237D02*
X106226247Y-92990475D01*
X106654819Y-93609523D02*
X106607200Y-93514285D01*
X106607200Y-93514285D02*
X106511961Y-93466666D01*
X106511961Y-93466666D02*
X105654819Y-93466666D01*
X105988152Y-93990476D02*
X106988152Y-93990476D01*
X106035771Y-93990476D02*
X105988152Y-94085714D01*
X105988152Y-94085714D02*
X105988152Y-94276190D01*
X105988152Y-94276190D02*
X106035771Y-94371428D01*
X106035771Y-94371428D02*
X106083390Y-94419047D01*
X106083390Y-94419047D02*
X106178628Y-94466666D01*
X106178628Y-94466666D02*
X106464342Y-94466666D01*
X106464342Y-94466666D02*
X106559580Y-94419047D01*
X106559580Y-94419047D02*
X106607200Y-94371428D01*
X106607200Y-94371428D02*
X106654819Y-94276190D01*
X106654819Y-94276190D02*
X106654819Y-94085714D01*
X106654819Y-94085714D02*
X106607200Y-93990476D01*
X106654819Y-95038095D02*
X106607200Y-94942857D01*
X106607200Y-94942857D02*
X106559580Y-94895238D01*
X106559580Y-94895238D02*
X106464342Y-94847619D01*
X106464342Y-94847619D02*
X106178628Y-94847619D01*
X106178628Y-94847619D02*
X106083390Y-94895238D01*
X106083390Y-94895238D02*
X106035771Y-94942857D01*
X106035771Y-94942857D02*
X105988152Y-95038095D01*
X105988152Y-95038095D02*
X105988152Y-95180952D01*
X105988152Y-95180952D02*
X106035771Y-95276190D01*
X106035771Y-95276190D02*
X106083390Y-95323809D01*
X106083390Y-95323809D02*
X106178628Y-95371428D01*
X106178628Y-95371428D02*
X106464342Y-95371428D01*
X106464342Y-95371428D02*
X106559580Y-95323809D01*
X106559580Y-95323809D02*
X106607200Y-95276190D01*
X106607200Y-95276190D02*
X106654819Y-95180952D01*
X106654819Y-95180952D02*
X106654819Y-95038095D01*
X106131009Y-96561905D02*
X106131009Y-96895238D01*
X106654819Y-97038095D02*
X106654819Y-96561905D01*
X106654819Y-96561905D02*
X105654819Y-96561905D01*
X105654819Y-96561905D02*
X105654819Y-97038095D01*
X106559580Y-98038095D02*
X106607200Y-97990476D01*
X106607200Y-97990476D02*
X106654819Y-97847619D01*
X106654819Y-97847619D02*
X106654819Y-97752381D01*
X106654819Y-97752381D02*
X106607200Y-97609524D01*
X106607200Y-97609524D02*
X106511961Y-97514286D01*
X106511961Y-97514286D02*
X106416723Y-97466667D01*
X106416723Y-97466667D02*
X106226247Y-97419048D01*
X106226247Y-97419048D02*
X106083390Y-97419048D01*
X106083390Y-97419048D02*
X105892914Y-97466667D01*
X105892914Y-97466667D02*
X105797676Y-97514286D01*
X105797676Y-97514286D02*
X105702438Y-97609524D01*
X105702438Y-97609524D02*
X105654819Y-97752381D01*
X105654819Y-97752381D02*
X105654819Y-97847619D01*
X105654819Y-97847619D02*
X105702438Y-97990476D01*
X105702438Y-97990476D02*
X105750057Y-98038095D01*
X106131009Y-98466667D02*
X106131009Y-98800000D01*
X106654819Y-98942857D02*
X106654819Y-98466667D01*
X106654819Y-98466667D02*
X105654819Y-98466667D01*
X105654819Y-98466667D02*
X105654819Y-98942857D01*
D11*
%TO.C,J3*%
X111815000Y-92740000D02*
X110825000Y-92740000D01*
%TD*%
%LPC*%
D12*
%TO.C,J1*%
X108800000Y-92760000D03*
D13*
X108800000Y-95300000D03*
X108800000Y-97840000D03*
%TD*%
D14*
%TO.C,M1*%
X103200000Y-95300000D03*
D15*
X103200000Y-98800000D03*
X103200000Y-91800000D03*
%TD*%
D16*
%TO.C,J3*%
X111600000Y-93300000D03*
X111600000Y-94300000D03*
X111600000Y-95300000D03*
X111600000Y-96300000D03*
X111600000Y-97300000D03*
D17*
X115475000Y-92000000D03*
X115475000Y-98600000D03*
%TD*%
%LPD*%
M02*
