%TF.GenerationSoftware,KiCad,Pcbnew,7.0.11-7.0.11~ubuntu22.04.1*%
%TF.CreationDate,2024-03-05T16:07:35-06:00*%
%TF.ProjectId,sg90-breakout,73673930-2d62-4726-9561-6b6f75742e6b,rev?*%
%TF.SameCoordinates,Original*%
%TF.FileFunction,Legend,Bot*%
%TF.FilePolarity,Positive*%
%FSLAX46Y46*%
G04 Gerber Fmt 4.6, Leading zero omitted, Abs format (unit mm)*
G04 Created by KiCad (PCBNEW 7.0.11-7.0.11~ubuntu22.04.1) date 2024-03-05 16:07:35*
%MOMM*%
%LPD*%
G01*
G04 APERTURE LIST*
G04 Aperture macros list*
%AMRoundRect*
0 Rectangle with rounded corners*
0 $1 Rounding radius*
0 $2 $3 $4 $5 $6 $7 $8 $9 X,Y pos of 4 corners*
0 Add a 4 corners polygon primitive as box body*
4,1,4,$2,$3,$4,$5,$6,$7,$8,$9,$2,$3,0*
0 Add four circle primitives for the rounded corners*
1,1,$1+$1,$2,$3*
1,1,$1+$1,$4,$5*
1,1,$1+$1,$6,$7*
1,1,$1+$1,$8,$9*
0 Add four rect primitives between the rounded corners*
20,1,$1+$1,$2,$3,$4,$5,0*
20,1,$1+$1,$4,$5,$6,$7,0*
20,1,$1+$1,$6,$7,$8,$9,0*
20,1,$1+$1,$8,$9,$2,$3,0*%
G04 Aperture macros list end*
%ADD10C,0.150000*%
%ADD11C,0.120000*%
%ADD12C,4.400000*%
%ADD13O,3.000000X1.600000*%
%ADD14R,1.700000X1.700000*%
%ADD15O,1.700000X1.700000*%
%ADD16RoundRect,0.150000X-0.625000X0.150000X-0.625000X-0.150000X0.625000X-0.150000X0.625000X0.150000X0*%
%ADD17RoundRect,0.250000X-0.650000X0.350000X-0.650000X-0.350000X0.650000X-0.350000X0.650000X0.350000X0*%
G04 APERTURE END LIST*
D10*
X114156077Y-98769819D02*
X114156077Y-99484104D01*
X114156077Y-99484104D02*
X114196554Y-99626961D01*
X114196554Y-99626961D02*
X114277506Y-99722200D01*
X114277506Y-99722200D02*
X114398935Y-99769819D01*
X114398935Y-99769819D02*
X114479887Y-99769819D01*
X113346554Y-99769819D02*
X113751316Y-99769819D01*
X113751316Y-99769819D02*
X113751316Y-98769819D01*
X112577506Y-99674580D02*
X112617982Y-99722200D01*
X112617982Y-99722200D02*
X112739411Y-99769819D01*
X112739411Y-99769819D02*
X112820363Y-99769819D01*
X112820363Y-99769819D02*
X112941792Y-99722200D01*
X112941792Y-99722200D02*
X113022744Y-99626961D01*
X113022744Y-99626961D02*
X113063221Y-99531723D01*
X113063221Y-99531723D02*
X113103697Y-99341247D01*
X113103697Y-99341247D02*
X113103697Y-99198390D01*
X113103697Y-99198390D02*
X113063221Y-99007914D01*
X113063221Y-99007914D02*
X113022744Y-98912676D01*
X113022744Y-98912676D02*
X112941792Y-98817438D01*
X112941792Y-98817438D02*
X112820363Y-98769819D01*
X112820363Y-98769819D02*
X112739411Y-98769819D01*
X112739411Y-98769819D02*
X112617982Y-98817438D01*
X112617982Y-98817438D02*
X112577506Y-98865057D01*
X111970363Y-98769819D02*
X111970363Y-99484104D01*
X111970363Y-99484104D02*
X112010840Y-99626961D01*
X112010840Y-99626961D02*
X112091792Y-99722200D01*
X112091792Y-99722200D02*
X112213221Y-99769819D01*
X112213221Y-99769819D02*
X112294173Y-99769819D01*
X111160840Y-99769819D02*
X111565602Y-99769819D01*
X111565602Y-99769819D02*
X111565602Y-98769819D01*
X110391792Y-99674580D02*
X110432268Y-99722200D01*
X110432268Y-99722200D02*
X110553697Y-99769819D01*
X110553697Y-99769819D02*
X110634649Y-99769819D01*
X110634649Y-99769819D02*
X110756078Y-99722200D01*
X110756078Y-99722200D02*
X110837030Y-99626961D01*
X110837030Y-99626961D02*
X110877507Y-99531723D01*
X110877507Y-99531723D02*
X110917983Y-99341247D01*
X110917983Y-99341247D02*
X110917983Y-99198390D01*
X110917983Y-99198390D02*
X110877507Y-99007914D01*
X110877507Y-99007914D02*
X110837030Y-98912676D01*
X110837030Y-98912676D02*
X110756078Y-98817438D01*
X110756078Y-98817438D02*
X110634649Y-98769819D01*
X110634649Y-98769819D02*
X110553697Y-98769819D01*
X110553697Y-98769819D02*
X110432268Y-98817438D01*
X110432268Y-98817438D02*
X110391792Y-98865057D01*
X109784649Y-98769819D02*
X109784649Y-99484104D01*
X109784649Y-99484104D02*
X109825126Y-99626961D01*
X109825126Y-99626961D02*
X109906078Y-99722200D01*
X109906078Y-99722200D02*
X110027507Y-99769819D01*
X110027507Y-99769819D02*
X110108459Y-99769819D01*
X108975126Y-99769819D02*
X109379888Y-99769819D01*
X109379888Y-99769819D02*
X109379888Y-98769819D01*
X108206078Y-99674580D02*
X108246554Y-99722200D01*
X108246554Y-99722200D02*
X108367983Y-99769819D01*
X108367983Y-99769819D02*
X108448935Y-99769819D01*
X108448935Y-99769819D02*
X108570364Y-99722200D01*
X108570364Y-99722200D02*
X108651316Y-99626961D01*
X108651316Y-99626961D02*
X108691793Y-99531723D01*
X108691793Y-99531723D02*
X108732269Y-99341247D01*
X108732269Y-99341247D02*
X108732269Y-99198390D01*
X108732269Y-99198390D02*
X108691793Y-99007914D01*
X108691793Y-99007914D02*
X108651316Y-98912676D01*
X108651316Y-98912676D02*
X108570364Y-98817438D01*
X108570364Y-98817438D02*
X108448935Y-98769819D01*
X108448935Y-98769819D02*
X108367983Y-98769819D01*
X108367983Y-98769819D02*
X108246554Y-98817438D01*
X108246554Y-98817438D02*
X108206078Y-98865057D01*
X107598935Y-98769819D02*
X107598935Y-99484104D01*
X107598935Y-99484104D02*
X107639412Y-99626961D01*
X107639412Y-99626961D02*
X107720364Y-99722200D01*
X107720364Y-99722200D02*
X107841793Y-99769819D01*
X107841793Y-99769819D02*
X107922745Y-99769819D01*
X106789412Y-99769819D02*
X107194174Y-99769819D01*
X107194174Y-99769819D02*
X107194174Y-98769819D01*
X106020364Y-99674580D02*
X106060840Y-99722200D01*
X106060840Y-99722200D02*
X106182269Y-99769819D01*
X106182269Y-99769819D02*
X106263221Y-99769819D01*
X106263221Y-99769819D02*
X106384650Y-99722200D01*
X106384650Y-99722200D02*
X106465602Y-99626961D01*
X106465602Y-99626961D02*
X106506079Y-99531723D01*
X106506079Y-99531723D02*
X106546555Y-99341247D01*
X106546555Y-99341247D02*
X106546555Y-99198390D01*
X106546555Y-99198390D02*
X106506079Y-99007914D01*
X106506079Y-99007914D02*
X106465602Y-98912676D01*
X106465602Y-98912676D02*
X106384650Y-98817438D01*
X106384650Y-98817438D02*
X106263221Y-98769819D01*
X106263221Y-98769819D02*
X106182269Y-98769819D01*
X106182269Y-98769819D02*
X106060840Y-98817438D01*
X106060840Y-98817438D02*
X106020364Y-98865057D01*
X113954819Y-92585714D02*
X112954819Y-92585714D01*
X112954819Y-92585714D02*
X112954819Y-92823809D01*
X112954819Y-92823809D02*
X113002438Y-92966666D01*
X113002438Y-92966666D02*
X113097676Y-93061904D01*
X113097676Y-93061904D02*
X113192914Y-93109523D01*
X113192914Y-93109523D02*
X113383390Y-93157142D01*
X113383390Y-93157142D02*
X113526247Y-93157142D01*
X113526247Y-93157142D02*
X113716723Y-93109523D01*
X113716723Y-93109523D02*
X113811961Y-93061904D01*
X113811961Y-93061904D02*
X113907200Y-92966666D01*
X113907200Y-92966666D02*
X113954819Y-92823809D01*
X113954819Y-92823809D02*
X113954819Y-92585714D01*
X112954819Y-93871428D02*
X113669104Y-93871428D01*
X113669104Y-93871428D02*
X113811961Y-93823809D01*
X113811961Y-93823809D02*
X113907200Y-93728571D01*
X113907200Y-93728571D02*
X113954819Y-93585714D01*
X113954819Y-93585714D02*
X113954819Y-93490476D01*
X112954819Y-94252381D02*
X113954819Y-94490476D01*
X113954819Y-94490476D02*
X113240533Y-94680952D01*
X113240533Y-94680952D02*
X113954819Y-94871428D01*
X113954819Y-94871428D02*
X112954819Y-95109524D01*
X105954819Y-91061904D02*
X106954819Y-91395237D01*
X106954819Y-91395237D02*
X105954819Y-91728570D01*
X106954819Y-92490475D02*
X106431009Y-92490475D01*
X106431009Y-92490475D02*
X106335771Y-92442856D01*
X106335771Y-92442856D02*
X106288152Y-92347618D01*
X106288152Y-92347618D02*
X106288152Y-92157142D01*
X106288152Y-92157142D02*
X106335771Y-92061904D01*
X106907200Y-92490475D02*
X106954819Y-92395237D01*
X106954819Y-92395237D02*
X106954819Y-92157142D01*
X106954819Y-92157142D02*
X106907200Y-92061904D01*
X106907200Y-92061904D02*
X106811961Y-92014285D01*
X106811961Y-92014285D02*
X106716723Y-92014285D01*
X106716723Y-92014285D02*
X106621485Y-92061904D01*
X106621485Y-92061904D02*
X106573866Y-92157142D01*
X106573866Y-92157142D02*
X106573866Y-92395237D01*
X106573866Y-92395237D02*
X106526247Y-92490475D01*
X106954819Y-93109523D02*
X106907200Y-93014285D01*
X106907200Y-93014285D02*
X106811961Y-92966666D01*
X106811961Y-92966666D02*
X105954819Y-92966666D01*
X106288152Y-93490476D02*
X107288152Y-93490476D01*
X106335771Y-93490476D02*
X106288152Y-93585714D01*
X106288152Y-93585714D02*
X106288152Y-93776190D01*
X106288152Y-93776190D02*
X106335771Y-93871428D01*
X106335771Y-93871428D02*
X106383390Y-93919047D01*
X106383390Y-93919047D02*
X106478628Y-93966666D01*
X106478628Y-93966666D02*
X106764342Y-93966666D01*
X106764342Y-93966666D02*
X106859580Y-93919047D01*
X106859580Y-93919047D02*
X106907200Y-93871428D01*
X106907200Y-93871428D02*
X106954819Y-93776190D01*
X106954819Y-93776190D02*
X106954819Y-93585714D01*
X106954819Y-93585714D02*
X106907200Y-93490476D01*
X106954819Y-94538095D02*
X106907200Y-94442857D01*
X106907200Y-94442857D02*
X106859580Y-94395238D01*
X106859580Y-94395238D02*
X106764342Y-94347619D01*
X106764342Y-94347619D02*
X106478628Y-94347619D01*
X106478628Y-94347619D02*
X106383390Y-94395238D01*
X106383390Y-94395238D02*
X106335771Y-94442857D01*
X106335771Y-94442857D02*
X106288152Y-94538095D01*
X106288152Y-94538095D02*
X106288152Y-94680952D01*
X106288152Y-94680952D02*
X106335771Y-94776190D01*
X106335771Y-94776190D02*
X106383390Y-94823809D01*
X106383390Y-94823809D02*
X106478628Y-94871428D01*
X106478628Y-94871428D02*
X106764342Y-94871428D01*
X106764342Y-94871428D02*
X106859580Y-94823809D01*
X106859580Y-94823809D02*
X106907200Y-94776190D01*
X106907200Y-94776190D02*
X106954819Y-94680952D01*
X106954819Y-94680952D02*
X106954819Y-94538095D01*
X106431009Y-96061905D02*
X106431009Y-96395238D01*
X106954819Y-96538095D02*
X106954819Y-96061905D01*
X106954819Y-96061905D02*
X105954819Y-96061905D01*
X105954819Y-96061905D02*
X105954819Y-96538095D01*
X106859580Y-97538095D02*
X106907200Y-97490476D01*
X106907200Y-97490476D02*
X106954819Y-97347619D01*
X106954819Y-97347619D02*
X106954819Y-97252381D01*
X106954819Y-97252381D02*
X106907200Y-97109524D01*
X106907200Y-97109524D02*
X106811961Y-97014286D01*
X106811961Y-97014286D02*
X106716723Y-96966667D01*
X106716723Y-96966667D02*
X106526247Y-96919048D01*
X106526247Y-96919048D02*
X106383390Y-96919048D01*
X106383390Y-96919048D02*
X106192914Y-96966667D01*
X106192914Y-96966667D02*
X106097676Y-97014286D01*
X106097676Y-97014286D02*
X106002438Y-97109524D01*
X106002438Y-97109524D02*
X105954819Y-97252381D01*
X105954819Y-97252381D02*
X105954819Y-97347619D01*
X105954819Y-97347619D02*
X106002438Y-97490476D01*
X106002438Y-97490476D02*
X106050057Y-97538095D01*
X106431009Y-97966667D02*
X106431009Y-98300000D01*
X106954819Y-98442857D02*
X106954819Y-97966667D01*
X106954819Y-97966667D02*
X105954819Y-97966667D01*
X105954819Y-97966667D02*
X105954819Y-98442857D01*
X114850057Y-93585714D02*
X114802438Y-93633333D01*
X114802438Y-93633333D02*
X114754819Y-93728571D01*
X114754819Y-93728571D02*
X114754819Y-93966666D01*
X114754819Y-93966666D02*
X114802438Y-94061904D01*
X114802438Y-94061904D02*
X114850057Y-94109523D01*
X114850057Y-94109523D02*
X114945295Y-94157142D01*
X114945295Y-94157142D02*
X115040533Y-94157142D01*
X115040533Y-94157142D02*
X115183390Y-94109523D01*
X115183390Y-94109523D02*
X115754819Y-93538095D01*
X115754819Y-93538095D02*
X115754819Y-94157142D01*
X114754819Y-94776190D02*
X114754819Y-94871428D01*
X114754819Y-94871428D02*
X114802438Y-94966666D01*
X114802438Y-94966666D02*
X114850057Y-95014285D01*
X114850057Y-95014285D02*
X114945295Y-95061904D01*
X114945295Y-95061904D02*
X115135771Y-95109523D01*
X115135771Y-95109523D02*
X115373866Y-95109523D01*
X115373866Y-95109523D02*
X115564342Y-95061904D01*
X115564342Y-95061904D02*
X115659580Y-95014285D01*
X115659580Y-95014285D02*
X115707200Y-94966666D01*
X115707200Y-94966666D02*
X115754819Y-94871428D01*
X115754819Y-94871428D02*
X115754819Y-94776190D01*
X115754819Y-94776190D02*
X115707200Y-94680952D01*
X115707200Y-94680952D02*
X115659580Y-94633333D01*
X115659580Y-94633333D02*
X115564342Y-94585714D01*
X115564342Y-94585714D02*
X115373866Y-94538095D01*
X115373866Y-94538095D02*
X115135771Y-94538095D01*
X115135771Y-94538095D02*
X114945295Y-94585714D01*
X114945295Y-94585714D02*
X114850057Y-94633333D01*
X114850057Y-94633333D02*
X114802438Y-94680952D01*
X114802438Y-94680952D02*
X114754819Y-94776190D01*
X114850057Y-95490476D02*
X114802438Y-95538095D01*
X114802438Y-95538095D02*
X114754819Y-95633333D01*
X114754819Y-95633333D02*
X114754819Y-95871428D01*
X114754819Y-95871428D02*
X114802438Y-95966666D01*
X114802438Y-95966666D02*
X114850057Y-96014285D01*
X114850057Y-96014285D02*
X114945295Y-96061904D01*
X114945295Y-96061904D02*
X115040533Y-96061904D01*
X115040533Y-96061904D02*
X115183390Y-96014285D01*
X115183390Y-96014285D02*
X115754819Y-95442857D01*
X115754819Y-95442857D02*
X115754819Y-96061904D01*
X115088152Y-96919047D02*
X115754819Y-96919047D01*
X114707200Y-96680952D02*
X115421485Y-96442857D01*
X115421485Y-96442857D02*
X115421485Y-97061904D01*
D11*
%TO.C,J3*%
X111815000Y-92740000D02*
X110825000Y-92740000D01*
%TD*%
%LPC*%
D12*
%TO.C,M1*%
X103200000Y-95300000D03*
D13*
X103200000Y-91800000D03*
X103200000Y-98800000D03*
%TD*%
D14*
%TO.C,J1*%
X108800000Y-97840000D03*
D15*
X108800000Y-95300000D03*
X108800000Y-92760000D03*
%TD*%
D16*
%TO.C,J3*%
X111600000Y-93300000D03*
X111600000Y-94300000D03*
X111600000Y-95300000D03*
X111600000Y-96300000D03*
X111600000Y-97300000D03*
D17*
X115475000Y-92000000D03*
X115475000Y-98600000D03*
%TD*%
%LPD*%
M02*
