%TF.GenerationSoftware,KiCad,Pcbnew,7.0.10-7.0.10~ubuntu22.04.1*%
%TF.CreationDate,2024-02-24T17:07:49-06:00*%
%TF.ProjectId,sg90-breakout,73673930-2d62-4726-9561-6b6f75742e6b,rev?*%
%TF.SameCoordinates,Original*%
%TF.FileFunction,Legend,Top*%
%TF.FilePolarity,Positive*%
%FSLAX46Y46*%
G04 Gerber Fmt 4.6, Leading zero omitted, Abs format (unit mm)*
G04 Created by KiCad (PCBNEW 7.0.10-7.0.10~ubuntu22.04.1) date 2024-02-24 17:07:49*
%MOMM*%
%LPD*%
G01*
G04 APERTURE LIST*
G04 Aperture macros list*
%AMRoundRect*
0 Rectangle with rounded corners*
0 $1 Rounding radius*
0 $2 $3 $4 $5 $6 $7 $8 $9 X,Y pos of 4 corners*
0 Add a 4 corners polygon primitive as box body*
4,1,4,$2,$3,$4,$5,$6,$7,$8,$9,$2,$3,0*
0 Add four circle primitives for the rounded corners*
1,1,$1+$1,$2,$3*
1,1,$1+$1,$4,$5*
1,1,$1+$1,$6,$7*
1,1,$1+$1,$8,$9*
0 Add four rect primitives between the rounded corners*
20,1,$1+$1,$2,$3,$4,$5,0*
20,1,$1+$1,$4,$5,$6,$7,0*
20,1,$1+$1,$6,$7,$8,$9,0*
20,1,$1+$1,$8,$9,$2,$3,0*%
G04 Aperture macros list end*
%ADD10C,0.150000*%
%ADD11C,0.120000*%
%ADD12RoundRect,0.150000X-0.625000X0.150000X-0.625000X-0.150000X0.625000X-0.150000X0.625000X0.150000X0*%
%ADD13RoundRect,0.250000X-0.650000X0.350000X-0.650000X-0.350000X0.650000X-0.350000X0.650000X0.350000X0*%
%ADD14C,4.400000*%
%ADD15O,3.000000X1.600000*%
%ADD16O,1.700000X1.700000*%
%ADD17R,1.700000X1.700000*%
G04 APERTURE END LIST*
D10*
X105236779Y-91188152D02*
X105236779Y-91854819D01*
X105236779Y-91283390D02*
X105284398Y-91235771D01*
X105284398Y-91235771D02*
X105379636Y-91188152D01*
X105379636Y-91188152D02*
X105522493Y-91188152D01*
X105522493Y-91188152D02*
X105617731Y-91235771D01*
X105617731Y-91235771D02*
X105665350Y-91331009D01*
X105665350Y-91331009D02*
X105665350Y-91854819D01*
X105236779Y-98588152D02*
X105236779Y-99588152D01*
X105236779Y-98635771D02*
X105332017Y-98588152D01*
X105332017Y-98588152D02*
X105522493Y-98588152D01*
X105522493Y-98588152D02*
X105617731Y-98635771D01*
X105617731Y-98635771D02*
X105665350Y-98683390D01*
X105665350Y-98683390D02*
X105712969Y-98778628D01*
X105712969Y-98778628D02*
X105712969Y-99064342D01*
X105712969Y-99064342D02*
X105665350Y-99159580D01*
X105665350Y-99159580D02*
X105617731Y-99207200D01*
X105617731Y-99207200D02*
X105522493Y-99254819D01*
X105522493Y-99254819D02*
X105332017Y-99254819D01*
X105332017Y-99254819D02*
X105236779Y-99207200D01*
X116236779Y-97088152D02*
X116236779Y-98088152D01*
X116236779Y-97135771D02*
X116332017Y-97088152D01*
X116332017Y-97088152D02*
X116522493Y-97088152D01*
X116522493Y-97088152D02*
X116617731Y-97135771D01*
X116617731Y-97135771D02*
X116665350Y-97183390D01*
X116665350Y-97183390D02*
X116712969Y-97278628D01*
X116712969Y-97278628D02*
X116712969Y-97564342D01*
X116712969Y-97564342D02*
X116665350Y-97659580D01*
X116665350Y-97659580D02*
X116617731Y-97707200D01*
X116617731Y-97707200D02*
X116522493Y-97754819D01*
X116522493Y-97754819D02*
X116332017Y-97754819D01*
X116332017Y-97754819D02*
X116236779Y-97707200D01*
X115536779Y-96088152D02*
X115536779Y-96754819D01*
X115536779Y-96183390D02*
X115584398Y-96135771D01*
X115584398Y-96135771D02*
X115679636Y-96088152D01*
X115679636Y-96088152D02*
X115822493Y-96088152D01*
X115822493Y-96088152D02*
X115917731Y-96135771D01*
X115917731Y-96135771D02*
X115965350Y-96231009D01*
X115965350Y-96231009D02*
X115965350Y-96754819D01*
X115536779Y-95373866D02*
X116298684Y-95373866D01*
X116798684Y-94373866D02*
X116036779Y-94373866D01*
X116227255Y-94564342D02*
X116036779Y-94373866D01*
X116036779Y-94373866D02*
X116227255Y-94183390D01*
X115536779Y-93373866D02*
X116298684Y-93373866D01*
X115917731Y-93754819D02*
X115917731Y-92992914D01*
D11*
%TO.C,J2*%
X113240000Y-91690000D02*
X112090000Y-91690000D01*
X112090000Y-91690000D02*
X112090000Y-92740000D01*
X112090000Y-92740000D02*
X111100000Y-92740000D01*
X113240000Y-98910000D02*
X112090000Y-98910000D01*
X112090000Y-98910000D02*
X112090000Y-97860000D01*
X115210000Y-92860000D02*
X115210000Y-97740000D01*
%TO.C,J1*%
X110130000Y-94030000D02*
X110130000Y-99170000D01*
X107470000Y-99170000D02*
X110130000Y-99170000D01*
X107470000Y-94030000D02*
X110130000Y-94030000D01*
X107470000Y-94030000D02*
X107470000Y-99170000D01*
X107470000Y-92760000D02*
X107470000Y-91430000D01*
X107470000Y-91430000D02*
X108800000Y-91430000D01*
%TD*%
%LPC*%
D12*
%TO.C,J2*%
X111875000Y-93300000D03*
X111875000Y-94300000D03*
X111875000Y-95300000D03*
X111875000Y-96300000D03*
X111875000Y-97300000D03*
D13*
X114400000Y-92000000D03*
X114400000Y-98600000D03*
%TD*%
D14*
%TO.C,M1*%
X103200000Y-95300000D03*
D15*
X103200000Y-98800000D03*
X103200000Y-91800000D03*
%TD*%
D16*
%TO.C,J1*%
X108800000Y-97840000D03*
X108800000Y-95300000D03*
D17*
X108800000Y-92760000D03*
%TD*%
%LPD*%
M02*
