%TF.GenerationSoftware,KiCad,Pcbnew,7.0.10-7.0.10~ubuntu22.04.1*%
%TF.CreationDate,2024-02-24T17:07:49-06:00*%
%TF.ProjectId,sg90-breakout,73673930-2d62-4726-9561-6b6f75742e6b,rev?*%
%TF.SameCoordinates,Original*%
%TF.FileFunction,Copper,L2,Bot*%
%TF.FilePolarity,Positive*%
%FSLAX46Y46*%
G04 Gerber Fmt 4.6, Leading zero omitted, Abs format (unit mm)*
G04 Created by KiCad (PCBNEW 7.0.10-7.0.10~ubuntu22.04.1) date 2024-02-24 17:07:49*
%MOMM*%
%LPD*%
G01*
G04 APERTURE LIST*
%TA.AperFunction,ComponentPad*%
%ADD10C,4.400000*%
%TD*%
%TA.AperFunction,ComponentPad*%
%ADD11O,3.000000X1.600000*%
%TD*%
%TA.AperFunction,ComponentPad*%
%ADD12O,1.700000X1.700000*%
%TD*%
%TA.AperFunction,ComponentPad*%
%ADD13R,1.700000X1.700000*%
%TD*%
%TA.AperFunction,ViaPad*%
%ADD14C,0.800000*%
%TD*%
%TA.AperFunction,Conductor*%
%ADD15C,0.500000*%
%TD*%
G04 APERTURE END LIST*
D10*
%TO.P,M1,*%
%TO.N,*%
X103200000Y-95300000D03*
D11*
%TO.P,M1,1,+*%
%TO.N,/motp*%
X103200000Y-98800000D03*
%TO.P,M1,2,-*%
%TO.N,/motn*%
X103200000Y-91800000D03*
%TD*%
D12*
%TO.P,J1,3,Pin_3*%
%TO.N,GND*%
X108800000Y-97840000D03*
%TO.P,J1,2,Pin_2*%
%TO.N,Net-(J1-Pin_2)*%
X108800000Y-95300000D03*
D13*
%TO.P,J1,1,Pin_1*%
%TO.N,Net-(J1-Pin_1)*%
X108800000Y-92760000D03*
%TD*%
D14*
%TO.N,/motp*%
X111500000Y-99100000D03*
X111500000Y-98300000D03*
%TD*%
D15*
%TO.N,/motp*%
X111500000Y-98300000D02*
X111500000Y-99100000D01*
X110800000Y-99200000D02*
X111400000Y-99200000D01*
X111400000Y-99200000D02*
X111500000Y-99100000D01*
X103200000Y-98800000D02*
X103600000Y-99200000D01*
X103600000Y-99200000D02*
X110800000Y-99200000D01*
X110800000Y-99200000D02*
X111500000Y-98500000D01*
X111500000Y-98500000D02*
X111500000Y-98300000D01*
%TD*%
%TA.AperFunction,Conductor*%
%TO.N,GND*%
G36*
X116943039Y-90919685D02*
G01*
X116988794Y-90972489D01*
X117000000Y-91024000D01*
X117000000Y-99576000D01*
X116980315Y-99643039D01*
X116927511Y-99688794D01*
X116876000Y-99700000D01*
X112292765Y-99700000D01*
X112225726Y-99680315D01*
X112179971Y-99627511D01*
X112170027Y-99558353D01*
X112187771Y-99510028D01*
X112225788Y-99449523D01*
X112225789Y-99449522D01*
X112285368Y-99279255D01*
X112305565Y-99100000D01*
X112294003Y-98997387D01*
X112285369Y-98920750D01*
X112285366Y-98920737D01*
X112223489Y-98743905D01*
X112225637Y-98743153D01*
X112216035Y-98684872D01*
X112224392Y-98656411D01*
X112223489Y-98656095D01*
X112285366Y-98479262D01*
X112285369Y-98479249D01*
X112305565Y-98300003D01*
X112305565Y-98299996D01*
X112285369Y-98120750D01*
X112285368Y-98120745D01*
X112225789Y-97950478D01*
X112129816Y-97797738D01*
X112002262Y-97670184D01*
X111849523Y-97574211D01*
X111679254Y-97514631D01*
X111679249Y-97514630D01*
X111500004Y-97494435D01*
X111499996Y-97494435D01*
X111320750Y-97514630D01*
X111320745Y-97514631D01*
X111150476Y-97574211D01*
X110997737Y-97670184D01*
X110870184Y-97797737D01*
X110774211Y-97950476D01*
X110714631Y-98120745D01*
X110714630Y-98120750D01*
X110694435Y-98299996D01*
X110694435Y-98300000D01*
X110695349Y-98308116D01*
X110696419Y-98317613D01*
X110684362Y-98386434D01*
X110660880Y-98419172D01*
X110566874Y-98513180D01*
X110505551Y-98546666D01*
X110479192Y-98549500D01*
X107124000Y-98549500D01*
X107056961Y-98529815D01*
X107011206Y-98477011D01*
X107000000Y-98425500D01*
X107000000Y-95300002D01*
X107544723Y-95300002D01*
X107563793Y-95517975D01*
X107563793Y-95517979D01*
X107620422Y-95729322D01*
X107620424Y-95729326D01*
X107620425Y-95729330D01*
X107666661Y-95828484D01*
X107712897Y-95927638D01*
X107712898Y-95927639D01*
X107838402Y-96106877D01*
X107993123Y-96261598D01*
X108172361Y-96387102D01*
X108370670Y-96479575D01*
X108582023Y-96536207D01*
X108764926Y-96552208D01*
X108799998Y-96555277D01*
X108800000Y-96555277D01*
X108800002Y-96555277D01*
X108828254Y-96552805D01*
X109017977Y-96536207D01*
X109229330Y-96479575D01*
X109427639Y-96387102D01*
X109606877Y-96261598D01*
X109761598Y-96106877D01*
X109887102Y-95927639D01*
X109979575Y-95729330D01*
X110036207Y-95517977D01*
X110055277Y-95300000D01*
X110036207Y-95082023D01*
X109979575Y-94870670D01*
X109887102Y-94672362D01*
X109887100Y-94672359D01*
X109887099Y-94672357D01*
X109761599Y-94493124D01*
X109761596Y-94493121D01*
X109606877Y-94338402D01*
X109460733Y-94236071D01*
X109417112Y-94181497D01*
X109409919Y-94111998D01*
X109441441Y-94049644D01*
X109501671Y-94014230D01*
X109531859Y-94010499D01*
X109681518Y-94010499D01*
X109775304Y-93995646D01*
X109888342Y-93938050D01*
X109978050Y-93848342D01*
X110035646Y-93735304D01*
X110035646Y-93735302D01*
X110035647Y-93735301D01*
X110050499Y-93641524D01*
X110050500Y-93641519D01*
X110050499Y-91878482D01*
X110035646Y-91784696D01*
X109978050Y-91671658D01*
X109978046Y-91671654D01*
X109978045Y-91671652D01*
X109888347Y-91581954D01*
X109888344Y-91581952D01*
X109888342Y-91581950D01*
X109811517Y-91542805D01*
X109775301Y-91524352D01*
X109681524Y-91509500D01*
X107918482Y-91509500D01*
X107837519Y-91522323D01*
X107824696Y-91524354D01*
X107711658Y-91581950D01*
X107711657Y-91581951D01*
X107711652Y-91581954D01*
X107621954Y-91671652D01*
X107621951Y-91671657D01*
X107564352Y-91784698D01*
X107549500Y-91878475D01*
X107549500Y-93641517D01*
X107560292Y-93709657D01*
X107564354Y-93735304D01*
X107621950Y-93848342D01*
X107621952Y-93848344D01*
X107621954Y-93848347D01*
X107711652Y-93938045D01*
X107711654Y-93938046D01*
X107711658Y-93938050D01*
X107824694Y-93995645D01*
X107824698Y-93995647D01*
X107918475Y-94010499D01*
X107918481Y-94010500D01*
X108068140Y-94010499D01*
X108135177Y-94030183D01*
X108180932Y-94082987D01*
X108190876Y-94152145D01*
X108161851Y-94215701D01*
X108139262Y-94236074D01*
X107993118Y-94338405D01*
X107838402Y-94493121D01*
X107712900Y-94672357D01*
X107712898Y-94672361D01*
X107620426Y-94870668D01*
X107620422Y-94870677D01*
X107563793Y-95082020D01*
X107563793Y-95082024D01*
X107544723Y-95299997D01*
X107544723Y-95300002D01*
X107000000Y-95300002D01*
X107000000Y-91024000D01*
X107019685Y-90956961D01*
X107072489Y-90911206D01*
X107124000Y-90900000D01*
X116876000Y-90900000D01*
X116943039Y-90919685D01*
G37*
%TD.AperFunction*%
%TD*%
M02*
