%TF.GenerationSoftware,KiCad,Pcbnew,7.0.11-7.0.11~ubuntu22.04.1*%
%TF.CreationDate,2024-03-05T16:07:35-06:00*%
%TF.ProjectId,sg90-breakout,73673930-2d62-4726-9561-6b6f75742e6b,rev?*%
%TF.SameCoordinates,Original*%
%TF.FileFunction,Copper,L2,Bot*%
%TF.FilePolarity,Positive*%
%FSLAX46Y46*%
G04 Gerber Fmt 4.6, Leading zero omitted, Abs format (unit mm)*
G04 Created by KiCad (PCBNEW 7.0.11-7.0.11~ubuntu22.04.1) date 2024-03-05 16:07:35*
%MOMM*%
%LPD*%
G01*
G04 APERTURE LIST*
G04 Aperture macros list*
%AMRoundRect*
0 Rectangle with rounded corners*
0 $1 Rounding radius*
0 $2 $3 $4 $5 $6 $7 $8 $9 X,Y pos of 4 corners*
0 Add a 4 corners polygon primitive as box body*
4,1,4,$2,$3,$4,$5,$6,$7,$8,$9,$2,$3,0*
0 Add four circle primitives for the rounded corners*
1,1,$1+$1,$2,$3*
1,1,$1+$1,$4,$5*
1,1,$1+$1,$6,$7*
1,1,$1+$1,$8,$9*
0 Add four rect primitives between the rounded corners*
20,1,$1+$1,$2,$3,$4,$5,0*
20,1,$1+$1,$4,$5,$6,$7,0*
20,1,$1+$1,$6,$7,$8,$9,0*
20,1,$1+$1,$8,$9,$2,$3,0*%
G04 Aperture macros list end*
%TA.AperFunction,ComponentPad*%
%ADD10C,4.400000*%
%TD*%
%TA.AperFunction,ComponentPad*%
%ADD11O,3.000000X1.600000*%
%TD*%
%TA.AperFunction,ComponentPad*%
%ADD12R,1.700000X1.700000*%
%TD*%
%TA.AperFunction,ComponentPad*%
%ADD13O,1.700000X1.700000*%
%TD*%
%TA.AperFunction,SMDPad,CuDef*%
%ADD14RoundRect,0.150000X-0.625000X0.150000X-0.625000X-0.150000X0.625000X-0.150000X0.625000X0.150000X0*%
%TD*%
%TA.AperFunction,SMDPad,CuDef*%
%ADD15RoundRect,0.250000X-0.650000X0.350000X-0.650000X-0.350000X0.650000X-0.350000X0.650000X0.350000X0*%
%TD*%
%TA.AperFunction,ViaPad*%
%ADD16C,0.800000*%
%TD*%
%TA.AperFunction,Conductor*%
%ADD17C,0.500000*%
%TD*%
G04 APERTURE END LIST*
D10*
%TO.P,M1,*%
%TO.N,*%
X103200000Y-95300000D03*
D11*
%TO.P,M1,1,+*%
%TO.N,/motp*%
X103200000Y-91800000D03*
%TO.P,M1,2,-*%
%TO.N,/motn*%
X103200000Y-98800000D03*
%TD*%
D12*
%TO.P,J1,1,Pin_1*%
%TO.N,/GND*%
X108800000Y-97840000D03*
D13*
%TO.P,J1,2,Pin_2*%
%TO.N,Net-(J1-Pin_2)*%
X108800000Y-95300000D03*
%TO.P,J1,3,Pin_3*%
%TO.N,Net-(J1-Pin_3)*%
X108800000Y-92760000D03*
%TD*%
D14*
%TO.P,J3,1,Pin_1*%
%TO.N,Net-(J1-Pin_3)*%
X111600000Y-93300000D03*
%TO.P,J3,2,Pin_2*%
%TO.N,Net-(J1-Pin_2)*%
X111600000Y-94300000D03*
%TO.P,J3,3,Pin_3*%
%TO.N,/GND*%
X111600000Y-95300000D03*
%TO.P,J3,4,Pin_4*%
%TO.N,/motp*%
X111600000Y-96300000D03*
%TO.P,J3,5,Pin_5*%
%TO.N,/motn*%
X111600000Y-97300000D03*
D15*
%TO.P,J3,MP,MountPin*%
%TO.N,/GND*%
X115475000Y-92000000D03*
X115475000Y-98600000D03*
%TD*%
D16*
%TO.N,/motn*%
X112099994Y-98200000D03*
X111100000Y-98200000D03*
%TO.N,/motp*%
X113300000Y-96400000D03*
X113300000Y-97256313D03*
%TD*%
D17*
%TO.N,Net-(J1-Pin_3)*%
X109340000Y-93300000D02*
X108800000Y-92760000D01*
X111500000Y-93300000D02*
X109340000Y-93300000D01*
%TO.N,Net-(J1-Pin_2)*%
X109800000Y-94300000D02*
X108800000Y-95300000D01*
X111500000Y-94300000D02*
X109800000Y-94300000D01*
%TO.N,/motn*%
X103600000Y-99200000D02*
X110100000Y-99200000D01*
X110100000Y-99200000D02*
X111100000Y-98200000D01*
X111600000Y-98200000D02*
X112099994Y-98200000D01*
X103200000Y-98800000D02*
X103600000Y-99200000D01*
X111100000Y-98200000D02*
X111600000Y-98200000D01*
X111600000Y-97300000D02*
X111600000Y-98200000D01*
%TO.N,/motp*%
X113200000Y-96300000D02*
X113300000Y-96400000D01*
X113249999Y-96450001D02*
X113300000Y-96400000D01*
X113300000Y-96400000D02*
X113300000Y-97256313D01*
X111600000Y-96300000D02*
X113200000Y-96300000D01*
%TD*%
%TA.AperFunction,Conductor*%
%TO.N,/GND*%
G36*
X117059191Y-90818907D02*
G01*
X117095155Y-90868407D01*
X117100000Y-90899000D01*
X117100000Y-99701000D01*
X117081093Y-99759191D01*
X117031593Y-99795155D01*
X117001000Y-99800000D01*
X110658953Y-99800000D01*
X110600762Y-99781093D01*
X110564798Y-99731593D01*
X110564798Y-99670407D01*
X110588949Y-99630996D01*
X110867600Y-99352345D01*
X111204410Y-99015534D01*
X111258925Y-98987759D01*
X111263307Y-98987164D01*
X111279255Y-98985368D01*
X111449522Y-98925789D01*
X111542338Y-98867467D01*
X111588796Y-98852490D01*
X111593727Y-98852180D01*
X111597871Y-98851920D01*
X111656748Y-98866898D01*
X111750472Y-98925789D01*
X111818651Y-98949646D01*
X111920732Y-98985366D01*
X111920736Y-98985367D01*
X111920739Y-98985368D01*
X112099994Y-99005565D01*
X112112082Y-99004203D01*
X114375001Y-99004203D01*
X114377850Y-99034600D01*
X114377850Y-99034602D01*
X114422654Y-99162647D01*
X114503207Y-99271790D01*
X114503209Y-99271792D01*
X114612352Y-99352345D01*
X114740398Y-99397149D01*
X114770789Y-99399999D01*
X115224998Y-99399999D01*
X115225000Y-99399998D01*
X115725000Y-99399998D01*
X115725001Y-99399999D01*
X116179203Y-99399999D01*
X116209600Y-99397149D01*
X116209602Y-99397149D01*
X116337647Y-99352345D01*
X116446790Y-99271792D01*
X116446792Y-99271790D01*
X116527345Y-99162647D01*
X116572149Y-99034601D01*
X116574999Y-99004211D01*
X116575000Y-99004210D01*
X116575000Y-98850001D01*
X116574999Y-98850000D01*
X115725001Y-98850000D01*
X115725000Y-98850001D01*
X115725000Y-99399998D01*
X115225000Y-99399998D01*
X115225000Y-98850001D01*
X115224999Y-98850000D01*
X114375002Y-98850000D01*
X114375001Y-98850001D01*
X114375001Y-99004203D01*
X112112082Y-99004203D01*
X112279249Y-98985368D01*
X112449516Y-98925789D01*
X112602256Y-98829816D01*
X112729810Y-98702262D01*
X112825783Y-98549522D01*
X112885362Y-98379255D01*
X112888658Y-98349999D01*
X114375000Y-98349999D01*
X114375001Y-98350000D01*
X115224999Y-98350000D01*
X115225000Y-98349999D01*
X115725000Y-98349999D01*
X115725001Y-98350000D01*
X116574998Y-98350000D01*
X116574999Y-98349999D01*
X116574999Y-98195796D01*
X116572149Y-98165399D01*
X116572149Y-98165397D01*
X116527345Y-98037352D01*
X116446792Y-97928209D01*
X116446790Y-97928207D01*
X116337647Y-97847654D01*
X116209601Y-97802850D01*
X116179211Y-97800000D01*
X115725001Y-97800000D01*
X115725000Y-97800001D01*
X115725000Y-98349999D01*
X115225000Y-98349999D01*
X115225000Y-97800001D01*
X115224999Y-97800000D01*
X114770796Y-97800000D01*
X114740399Y-97802850D01*
X114740397Y-97802850D01*
X114612352Y-97847654D01*
X114503209Y-97928207D01*
X114503207Y-97928209D01*
X114422654Y-98037352D01*
X114377850Y-98165398D01*
X114375000Y-98195788D01*
X114375000Y-98349999D01*
X112888658Y-98349999D01*
X112905559Y-98200000D01*
X112905085Y-98195796D01*
X112895797Y-98113363D01*
X112908069Y-98053421D01*
X112953231Y-98012141D01*
X113014031Y-98005290D01*
X113026872Y-98008834D01*
X113120738Y-98041679D01*
X113120742Y-98041680D01*
X113120745Y-98041681D01*
X113300000Y-98061878D01*
X113479255Y-98041681D01*
X113649522Y-97982102D01*
X113802262Y-97886129D01*
X113929816Y-97758575D01*
X114025789Y-97605835D01*
X114085368Y-97435568D01*
X114105565Y-97256313D01*
X114085368Y-97077058D01*
X114025789Y-96906791D01*
X114025787Y-96906788D01*
X114025787Y-96906787D01*
X114009475Y-96880827D01*
X113994524Y-96821497D01*
X114009474Y-96775486D01*
X114025789Y-96749522D01*
X114085368Y-96579255D01*
X114105565Y-96400000D01*
X114085368Y-96220745D01*
X114025789Y-96050478D01*
X114005654Y-96018434D01*
X113929818Y-95897741D01*
X113929817Y-95897740D01*
X113929816Y-95897738D01*
X113802262Y-95770184D01*
X113802259Y-95770182D01*
X113802258Y-95770181D01*
X113649523Y-95674211D01*
X113479261Y-95614633D01*
X113479257Y-95614632D01*
X113300000Y-95594435D01*
X113120742Y-95614632D01*
X113120738Y-95614633D01*
X113036976Y-95643944D01*
X113004278Y-95649500D01*
X112665243Y-95649500D01*
X112607052Y-95630593D01*
X112571088Y-95581093D01*
X112568793Y-95554074D01*
X112565270Y-95550000D01*
X110634729Y-95550000D01*
X110634911Y-95551246D01*
X110658266Y-95599021D01*
X110666837Y-95659603D01*
X110638161Y-95713653D01*
X110629146Y-95721383D01*
X110582084Y-95757072D01*
X110582075Y-95757081D01*
X110490640Y-95877656D01*
X110490637Y-95877660D01*
X110435123Y-96018434D01*
X110424500Y-96106893D01*
X110424500Y-96493106D01*
X110435123Y-96581565D01*
X110490637Y-96722339D01*
X110490642Y-96722347D01*
X110504167Y-96740183D01*
X110524261Y-96797974D01*
X110506549Y-96856540D01*
X110504167Y-96859817D01*
X110490642Y-96877652D01*
X110490637Y-96877660D01*
X110435123Y-97018434D01*
X110424500Y-97106893D01*
X110424500Y-97493106D01*
X110435123Y-97581565D01*
X110458418Y-97640639D01*
X110462176Y-97701709D01*
X110450146Y-97729627D01*
X110374211Y-97850476D01*
X110374211Y-97850477D01*
X110314632Y-98020740D01*
X110314631Y-98020747D01*
X110312836Y-98036674D01*
X110287530Y-98092381D01*
X110284463Y-98095588D01*
X110019004Y-98361048D01*
X109964487Y-98388826D01*
X109904055Y-98379255D01*
X109860790Y-98335990D01*
X109850000Y-98291045D01*
X109850000Y-98090001D01*
X109849999Y-98090000D01*
X109233686Y-98090000D01*
X109259493Y-98049844D01*
X109300000Y-97911889D01*
X109300000Y-97768111D01*
X109259493Y-97630156D01*
X109233686Y-97590000D01*
X109849999Y-97590000D01*
X109850000Y-97589999D01*
X109850000Y-96970302D01*
X109849999Y-96970299D01*
X109838396Y-96911963D01*
X109794193Y-96845810D01*
X109794189Y-96845806D01*
X109728036Y-96801603D01*
X109669700Y-96790000D01*
X109050001Y-96790000D01*
X109050000Y-96790001D01*
X109050000Y-97404498D01*
X108942315Y-97355320D01*
X108835763Y-97340000D01*
X108764237Y-97340000D01*
X108657685Y-97355320D01*
X108550000Y-97404498D01*
X108550000Y-96790001D01*
X108549999Y-96790000D01*
X107930299Y-96790000D01*
X107871963Y-96801603D01*
X107805810Y-96845806D01*
X107805806Y-96845810D01*
X107761603Y-96911963D01*
X107750000Y-96970299D01*
X107750000Y-97589999D01*
X107750001Y-97590000D01*
X108366314Y-97590000D01*
X108340507Y-97630156D01*
X108300000Y-97768111D01*
X108300000Y-97911889D01*
X108340507Y-98049844D01*
X108366314Y-98090000D01*
X107750001Y-98090000D01*
X107750000Y-98090001D01*
X107750000Y-98450500D01*
X107731093Y-98508691D01*
X107681593Y-98544655D01*
X107651000Y-98549500D01*
X105299000Y-98549500D01*
X105240809Y-98530593D01*
X105204845Y-98481093D01*
X105200000Y-98450500D01*
X105200000Y-96998020D01*
X105218907Y-96939829D01*
X105221069Y-96936965D01*
X105244712Y-96906787D01*
X105344081Y-96779952D01*
X105344082Y-96779949D01*
X105344086Y-96779945D01*
X105479902Y-96555277D01*
X105506837Y-96510721D01*
X105635954Y-96223835D01*
X105729549Y-95923478D01*
X105786147Y-95614633D01*
X105786256Y-95614040D01*
X105786259Y-95614018D01*
X105805253Y-95300006D01*
X105805253Y-95300003D01*
X107544723Y-95300003D01*
X107563791Y-95517969D01*
X107563792Y-95517976D01*
X107563793Y-95517977D01*
X107620425Y-95729330D01*
X107698955Y-95897738D01*
X107712897Y-95927637D01*
X107798909Y-96050476D01*
X107838402Y-96106877D01*
X107993123Y-96261598D01*
X108172361Y-96387102D01*
X108370670Y-96479575D01*
X108582023Y-96536207D01*
X108582027Y-96536207D01*
X108582030Y-96536208D01*
X108799997Y-96555277D01*
X108800000Y-96555277D01*
X108800003Y-96555277D01*
X109017969Y-96536208D01*
X109017970Y-96536207D01*
X109017977Y-96536207D01*
X109229330Y-96479575D01*
X109427639Y-96387102D01*
X109606877Y-96261598D01*
X109761598Y-96106877D01*
X109887102Y-95927639D01*
X109979575Y-95729330D01*
X110036207Y-95517977D01*
X110055277Y-95300006D01*
X110055277Y-95300003D01*
X110055277Y-95299996D01*
X110036208Y-95082029D01*
X110036207Y-95082026D01*
X110036207Y-95082023D01*
X110034357Y-95075118D01*
X110037562Y-95014017D01*
X110076069Y-94966469D01*
X110129985Y-94950500D01*
X110534757Y-94950500D01*
X110592948Y-94969407D01*
X110628912Y-95018907D01*
X110631206Y-95045925D01*
X110634730Y-95050000D01*
X112565270Y-95050000D01*
X112565270Y-95049999D01*
X112565088Y-95048751D01*
X112541733Y-95000978D01*
X112533161Y-94940396D01*
X112561836Y-94886346D01*
X112570833Y-94878630D01*
X112617922Y-94842922D01*
X112709361Y-94722342D01*
X112764877Y-94581564D01*
X112775500Y-94493102D01*
X112775500Y-94106898D01*
X112764877Y-94018436D01*
X112709361Y-93877658D01*
X112695832Y-93859818D01*
X112675737Y-93802031D01*
X112693446Y-93743465D01*
X112695804Y-93740218D01*
X112709361Y-93722342D01*
X112764877Y-93581564D01*
X112775500Y-93493102D01*
X112775500Y-93106898D01*
X112764877Y-93018436D01*
X112709361Y-92877658D01*
X112617922Y-92757078D01*
X112497342Y-92665639D01*
X112497341Y-92665638D01*
X112497339Y-92665637D01*
X112356565Y-92610123D01*
X112268106Y-92599500D01*
X112268102Y-92599500D01*
X110931898Y-92599500D01*
X110931893Y-92599500D01*
X110843435Y-92610123D01*
X110761084Y-92642598D01*
X110724766Y-92649500D01*
X110136327Y-92649500D01*
X110078136Y-92630593D01*
X110042172Y-92581093D01*
X110037704Y-92559127D01*
X110036208Y-92542031D01*
X110036207Y-92542029D01*
X110036207Y-92542023D01*
X109999278Y-92404203D01*
X114375001Y-92404203D01*
X114377850Y-92434600D01*
X114377850Y-92434602D01*
X114422654Y-92562647D01*
X114503207Y-92671790D01*
X114503209Y-92671792D01*
X114612352Y-92752345D01*
X114740398Y-92797149D01*
X114770789Y-92799999D01*
X115224998Y-92799999D01*
X115225000Y-92799998D01*
X115725000Y-92799998D01*
X115725001Y-92799999D01*
X116179203Y-92799999D01*
X116209600Y-92797149D01*
X116209602Y-92797149D01*
X116337647Y-92752345D01*
X116446790Y-92671792D01*
X116446792Y-92671790D01*
X116527345Y-92562647D01*
X116572149Y-92434601D01*
X116574999Y-92404211D01*
X116575000Y-92404210D01*
X116575000Y-92250001D01*
X116574999Y-92250000D01*
X115725001Y-92250000D01*
X115725000Y-92250001D01*
X115725000Y-92799998D01*
X115225000Y-92799998D01*
X115225000Y-92250001D01*
X115224999Y-92250000D01*
X114375002Y-92250000D01*
X114375001Y-92250001D01*
X114375001Y-92404203D01*
X109999278Y-92404203D01*
X109979575Y-92330670D01*
X109887102Y-92132362D01*
X109761598Y-91953123D01*
X109606877Y-91798402D01*
X109606873Y-91798399D01*
X109606872Y-91798398D01*
X109537751Y-91749999D01*
X114375000Y-91749999D01*
X114375001Y-91750000D01*
X115224999Y-91750000D01*
X115225000Y-91749999D01*
X115725000Y-91749999D01*
X115725001Y-91750000D01*
X116574998Y-91750000D01*
X116574999Y-91749999D01*
X116574999Y-91595796D01*
X116572149Y-91565399D01*
X116572149Y-91565397D01*
X116527345Y-91437352D01*
X116446792Y-91328209D01*
X116446790Y-91328207D01*
X116337647Y-91247654D01*
X116209601Y-91202850D01*
X116179211Y-91200000D01*
X115725001Y-91200000D01*
X115725000Y-91200001D01*
X115725000Y-91749999D01*
X115225000Y-91749999D01*
X115225000Y-91200001D01*
X115224999Y-91200000D01*
X114770796Y-91200000D01*
X114740399Y-91202850D01*
X114740397Y-91202850D01*
X114612352Y-91247654D01*
X114503209Y-91328207D01*
X114503207Y-91328209D01*
X114422654Y-91437352D01*
X114377850Y-91565398D01*
X114375000Y-91595788D01*
X114375000Y-91749999D01*
X109537751Y-91749999D01*
X109507435Y-91728772D01*
X109427639Y-91672898D01*
X109229330Y-91580425D01*
X109017977Y-91523793D01*
X109017976Y-91523792D01*
X109017969Y-91523791D01*
X108800003Y-91504723D01*
X108799997Y-91504723D01*
X108582030Y-91523791D01*
X108370666Y-91580426D01*
X108172372Y-91672892D01*
X108172364Y-91672896D01*
X107993127Y-91798398D01*
X107838398Y-91953127D01*
X107712896Y-92132364D01*
X107712892Y-92132372D01*
X107620426Y-92330666D01*
X107563791Y-92542030D01*
X107544723Y-92759996D01*
X107544723Y-92760003D01*
X107563791Y-92977969D01*
X107563792Y-92977976D01*
X107563793Y-92977977D01*
X107620425Y-93189330D01*
X107712898Y-93387639D01*
X107838402Y-93566877D01*
X107993123Y-93721598D01*
X107993126Y-93721600D01*
X107993127Y-93721601D01*
X108019658Y-93740178D01*
X108172361Y-93847102D01*
X108370670Y-93939575D01*
X108370671Y-93939575D01*
X108372172Y-93940275D01*
X108416920Y-93982004D01*
X108428595Y-94042065D01*
X108402737Y-94097518D01*
X108372172Y-94119724D01*
X108172372Y-94212892D01*
X108172364Y-94212896D01*
X107993127Y-94338398D01*
X107838398Y-94493127D01*
X107712896Y-94672364D01*
X107712892Y-94672372D01*
X107620426Y-94870666D01*
X107563791Y-95082030D01*
X107544723Y-95299996D01*
X107544723Y-95300003D01*
X105805253Y-95300003D01*
X105805253Y-95299993D01*
X105786259Y-94985981D01*
X105786256Y-94985959D01*
X105729549Y-94676522D01*
X105672401Y-94493127D01*
X105635954Y-94376165D01*
X105506837Y-94089279D01*
X105506828Y-94089264D01*
X105344089Y-93820061D01*
X105344083Y-93820052D01*
X105344081Y-93820048D01*
X105221068Y-93663033D01*
X105200065Y-93605565D01*
X105200000Y-93601978D01*
X105200000Y-90899000D01*
X105218907Y-90840809D01*
X105268407Y-90804845D01*
X105299000Y-90800000D01*
X117001000Y-90800000D01*
X117059191Y-90818907D01*
G37*
%TD.AperFunction*%
%TD*%
M02*
