%TF.GenerationSoftware,KiCad,Pcbnew,7.0.10-7.0.10~ubuntu22.04.1*%
%TF.CreationDate,2024-02-24T17:07:49-06:00*%
%TF.ProjectId,sg90-breakout,73673930-2d62-4726-9561-6b6f75742e6b,rev?*%
%TF.SameCoordinates,Original*%
%TF.FileFunction,Legend,Bot*%
%TF.FilePolarity,Positive*%
%FSLAX46Y46*%
G04 Gerber Fmt 4.6, Leading zero omitted, Abs format (unit mm)*
G04 Created by KiCad (PCBNEW 7.0.10-7.0.10~ubuntu22.04.1) date 2024-02-24 17:07:49*
%MOMM*%
%LPD*%
G01*
G04 APERTURE LIST*
%ADD10C,0.150000*%
%ADD11C,4.400000*%
%ADD12O,3.000000X1.600000*%
%ADD13O,1.700000X1.700000*%
%ADD14R,1.700000X1.700000*%
G04 APERTURE END LIST*
D10*
X116606077Y-94349819D02*
X116272744Y-95349819D01*
X116272744Y-95349819D02*
X115939411Y-94349819D01*
X115177506Y-95349819D02*
X115177506Y-94826009D01*
X115177506Y-94826009D02*
X115225125Y-94730771D01*
X115225125Y-94730771D02*
X115320363Y-94683152D01*
X115320363Y-94683152D02*
X115510839Y-94683152D01*
X115510839Y-94683152D02*
X115606077Y-94730771D01*
X115177506Y-95302200D02*
X115272744Y-95349819D01*
X115272744Y-95349819D02*
X115510839Y-95349819D01*
X115510839Y-95349819D02*
X115606077Y-95302200D01*
X115606077Y-95302200D02*
X115653696Y-95206961D01*
X115653696Y-95206961D02*
X115653696Y-95111723D01*
X115653696Y-95111723D02*
X115606077Y-95016485D01*
X115606077Y-95016485D02*
X115510839Y-94968866D01*
X115510839Y-94968866D02*
X115272744Y-94968866D01*
X115272744Y-94968866D02*
X115177506Y-94921247D01*
X114558458Y-95349819D02*
X114653696Y-95302200D01*
X114653696Y-95302200D02*
X114701315Y-95206961D01*
X114701315Y-95206961D02*
X114701315Y-94349819D01*
X114177505Y-94683152D02*
X114177505Y-95683152D01*
X114177505Y-94730771D02*
X114082267Y-94683152D01*
X114082267Y-94683152D02*
X113891791Y-94683152D01*
X113891791Y-94683152D02*
X113796553Y-94730771D01*
X113796553Y-94730771D02*
X113748934Y-94778390D01*
X113748934Y-94778390D02*
X113701315Y-94873628D01*
X113701315Y-94873628D02*
X113701315Y-95159342D01*
X113701315Y-95159342D02*
X113748934Y-95254580D01*
X113748934Y-95254580D02*
X113796553Y-95302200D01*
X113796553Y-95302200D02*
X113891791Y-95349819D01*
X113891791Y-95349819D02*
X114082267Y-95349819D01*
X114082267Y-95349819D02*
X114177505Y-95302200D01*
X113129886Y-95349819D02*
X113225124Y-95302200D01*
X113225124Y-95302200D02*
X113272743Y-95254580D01*
X113272743Y-95254580D02*
X113320362Y-95159342D01*
X113320362Y-95159342D02*
X113320362Y-94873628D01*
X113320362Y-94873628D02*
X113272743Y-94778390D01*
X113272743Y-94778390D02*
X113225124Y-94730771D01*
X113225124Y-94730771D02*
X113129886Y-94683152D01*
X113129886Y-94683152D02*
X112987029Y-94683152D01*
X112987029Y-94683152D02*
X112891791Y-94730771D01*
X112891791Y-94730771D02*
X112844172Y-94778390D01*
X112844172Y-94778390D02*
X112796553Y-94873628D01*
X112796553Y-94873628D02*
X112796553Y-95159342D01*
X112796553Y-95159342D02*
X112844172Y-95254580D01*
X112844172Y-95254580D02*
X112891791Y-95302200D01*
X112891791Y-95302200D02*
X112987029Y-95349819D01*
X112987029Y-95349819D02*
X113129886Y-95349819D01*
X116463220Y-96436009D02*
X116129887Y-96436009D01*
X115987030Y-96959819D02*
X116463220Y-96959819D01*
X116463220Y-96959819D02*
X116463220Y-95959819D01*
X116463220Y-95959819D02*
X115987030Y-95959819D01*
X114987030Y-96864580D02*
X115034649Y-96912200D01*
X115034649Y-96912200D02*
X115177506Y-96959819D01*
X115177506Y-96959819D02*
X115272744Y-96959819D01*
X115272744Y-96959819D02*
X115415601Y-96912200D01*
X115415601Y-96912200D02*
X115510839Y-96816961D01*
X115510839Y-96816961D02*
X115558458Y-96721723D01*
X115558458Y-96721723D02*
X115606077Y-96531247D01*
X115606077Y-96531247D02*
X115606077Y-96388390D01*
X115606077Y-96388390D02*
X115558458Y-96197914D01*
X115558458Y-96197914D02*
X115510839Y-96102676D01*
X115510839Y-96102676D02*
X115415601Y-96007438D01*
X115415601Y-96007438D02*
X115272744Y-95959819D01*
X115272744Y-95959819D02*
X115177506Y-95959819D01*
X115177506Y-95959819D02*
X115034649Y-96007438D01*
X115034649Y-96007438D02*
X114987030Y-96055057D01*
X114558458Y-96436009D02*
X114225125Y-96436009D01*
X114082268Y-96959819D02*
X114558458Y-96959819D01*
X114558458Y-96959819D02*
X114558458Y-95959819D01*
X114558458Y-95959819D02*
X114082268Y-95959819D01*
X114939410Y-98569819D02*
X114939410Y-97569819D01*
X114939410Y-97569819D02*
X114701315Y-97569819D01*
X114701315Y-97569819D02*
X114558458Y-97617438D01*
X114558458Y-97617438D02*
X114463220Y-97712676D01*
X114463220Y-97712676D02*
X114415601Y-97807914D01*
X114415601Y-97807914D02*
X114367982Y-97998390D01*
X114367982Y-97998390D02*
X114367982Y-98141247D01*
X114367982Y-98141247D02*
X114415601Y-98331723D01*
X114415601Y-98331723D02*
X114463220Y-98426961D01*
X114463220Y-98426961D02*
X114558458Y-98522200D01*
X114558458Y-98522200D02*
X114701315Y-98569819D01*
X114701315Y-98569819D02*
X114939410Y-98569819D01*
X113653696Y-97569819D02*
X113653696Y-98284104D01*
X113653696Y-98284104D02*
X113701315Y-98426961D01*
X113701315Y-98426961D02*
X113796553Y-98522200D01*
X113796553Y-98522200D02*
X113939410Y-98569819D01*
X113939410Y-98569819D02*
X114034648Y-98569819D01*
X113272743Y-97569819D02*
X113034648Y-98569819D01*
X113034648Y-98569819D02*
X112844172Y-97855533D01*
X112844172Y-97855533D02*
X112653696Y-98569819D01*
X112653696Y-98569819D02*
X112415601Y-97569819D01*
G36*
X112575935Y-93112410D02*
G01*
X112606342Y-93142817D01*
X112640600Y-93211333D01*
X112640600Y-93461637D01*
X112606341Y-93530153D01*
X112575934Y-93560561D01*
X112507419Y-93594819D01*
X112399972Y-93594819D01*
X112331456Y-93560561D01*
X112301049Y-93530153D01*
X112266791Y-93461637D01*
X112266791Y-93211333D01*
X112301049Y-93142817D01*
X112331456Y-93112410D01*
X112399972Y-93078152D01*
X112507419Y-93078152D01*
X112575935Y-93112410D01*
G37*
G36*
X114048934Y-93363866D02*
G01*
X114269324Y-93363866D01*
X114326365Y-93392386D01*
X114354886Y-93449428D01*
X114354886Y-93509256D01*
X114326365Y-93566298D01*
X114269324Y-93594819D01*
X114066639Y-93594819D01*
X114028696Y-93575847D01*
X114028696Y-93360297D01*
X114048934Y-93363866D01*
G37*
G36*
X115183508Y-93106672D02*
G01*
X115212029Y-93163714D01*
X115212029Y-93244999D01*
X114885839Y-93179761D01*
X114885839Y-93163714D01*
X114914359Y-93106672D01*
X114971401Y-93078152D01*
X115126467Y-93078152D01*
X115183508Y-93106672D01*
G37*
G36*
X116688220Y-93097123D02*
G01*
X116688220Y-93575847D01*
X116650277Y-93594819D01*
X116495211Y-93594819D01*
X116426695Y-93560561D01*
X116396288Y-93530153D01*
X116362030Y-93461637D01*
X116362030Y-93211333D01*
X116396288Y-93142817D01*
X116426695Y-93112410D01*
X116495211Y-93078152D01*
X116650277Y-93078152D01*
X116688220Y-93097123D01*
G37*
G36*
X113718793Y-91169077D02*
G01*
X113749200Y-91199484D01*
X113787693Y-91276471D01*
X113831077Y-91450005D01*
X113831077Y-91669632D01*
X113787693Y-91843166D01*
X113749199Y-91920153D01*
X113718792Y-91950561D01*
X113650277Y-91984819D01*
X113590449Y-91984819D01*
X113521933Y-91950561D01*
X113491526Y-91920153D01*
X113453032Y-91843166D01*
X113409649Y-91669632D01*
X113409649Y-91450005D01*
X113453032Y-91276471D01*
X113491526Y-91199484D01*
X113521933Y-91169077D01*
X113590449Y-91134819D01*
X113650277Y-91134819D01*
X113718793Y-91169077D01*
G37*
G36*
X114718793Y-91169077D02*
G01*
X114749200Y-91199484D01*
X114783458Y-91268000D01*
X114783458Y-91470685D01*
X114749200Y-91539201D01*
X114718793Y-91569608D01*
X114650277Y-91603866D01*
X114495211Y-91603866D01*
X114426695Y-91569608D01*
X114396288Y-91539201D01*
X114362030Y-91470685D01*
X114362030Y-91268000D01*
X114396288Y-91199484D01*
X114426695Y-91169077D01*
X114495211Y-91134819D01*
X114650277Y-91134819D01*
X114718793Y-91169077D01*
G37*
G36*
X117028696Y-93887676D02*
G01*
X110403644Y-93887676D01*
X110403644Y-93656795D01*
X110546501Y-93656795D01*
X110555410Y-93707319D01*
X110594710Y-93740296D01*
X110620362Y-93744819D01*
X110715600Y-93744819D01*
X110719813Y-93743285D01*
X110724174Y-93744327D01*
X110749141Y-93736901D01*
X110844379Y-93689282D01*
X110852098Y-93681128D01*
X110862403Y-93676662D01*
X110867478Y-93669819D01*
X111259648Y-93669819D01*
X111277195Y-93718028D01*
X111321624Y-93743680D01*
X111372148Y-93734771D01*
X111392114Y-93710976D01*
X111443964Y-93736901D01*
X111448417Y-93737413D01*
X111451853Y-93740296D01*
X111477505Y-93744819D01*
X111620362Y-93744819D01*
X111624575Y-93743285D01*
X111628936Y-93744327D01*
X111653903Y-93736901D01*
X111749141Y-93689282D01*
X111756860Y-93681128D01*
X111767165Y-93676662D01*
X111782682Y-93655741D01*
X111830301Y-93560502D01*
X111830813Y-93556048D01*
X111833696Y-93552613D01*
X111838219Y-93526961D01*
X111838219Y-93479342D01*
X112116791Y-93479342D01*
X112118324Y-93483555D01*
X112117283Y-93487916D01*
X112124709Y-93512883D01*
X112172328Y-93608121D01*
X112173516Y-93609246D01*
X112186376Y-93627612D01*
X112233995Y-93675232D01*
X112235476Y-93675922D01*
X112253488Y-93689282D01*
X112348726Y-93736901D01*
X112353179Y-93737413D01*
X112356615Y-93740296D01*
X112382267Y-93744819D01*
X112525124Y-93744819D01*
X112529337Y-93743285D01*
X112533698Y-93744327D01*
X112558665Y-93736901D01*
X112653903Y-93689282D01*
X112655027Y-93688094D01*
X112673396Y-93675232D01*
X112674714Y-93673914D01*
X113021665Y-93673914D01*
X113041817Y-93721093D01*
X113087582Y-93744281D01*
X113137543Y-93732627D01*
X113156553Y-93714819D01*
X113390381Y-93403046D01*
X113402505Y-93415170D01*
X113402505Y-93669819D01*
X113420052Y-93718028D01*
X113464481Y-93743680D01*
X113515005Y-93734771D01*
X113547982Y-93695471D01*
X113552505Y-93669819D01*
X113878696Y-93669819D01*
X113896243Y-93718028D01*
X113940672Y-93743680D01*
X113991196Y-93734771D01*
X113997088Y-93727748D01*
X114015393Y-93736901D01*
X114019846Y-93737413D01*
X114023282Y-93740296D01*
X114048934Y-93744819D01*
X114287029Y-93744819D01*
X114291242Y-93743285D01*
X114295603Y-93744327D01*
X114320570Y-93736901D01*
X114415808Y-93689282D01*
X114423527Y-93681128D01*
X114433832Y-93676662D01*
X114449349Y-93655741D01*
X114496968Y-93560502D01*
X114497480Y-93556048D01*
X114500363Y-93552613D01*
X114504886Y-93526961D01*
X114504886Y-93431723D01*
X114503352Y-93427509D01*
X114504394Y-93423148D01*
X114496968Y-93398182D01*
X114449349Y-93302944D01*
X114441195Y-93295224D01*
X114436729Y-93284920D01*
X114415808Y-93269403D01*
X114359496Y-93241247D01*
X114735839Y-93241247D01*
X114740077Y-93252891D01*
X114739794Y-93265281D01*
X114748580Y-93276251D01*
X114753386Y-93289456D01*
X114764115Y-93295650D01*
X114771863Y-93305325D01*
X114796130Y-93314791D01*
X115212029Y-93397969D01*
X115212029Y-93509256D01*
X115183508Y-93566298D01*
X115126467Y-93594819D01*
X114971401Y-93594819D01*
X114891999Y-93555118D01*
X114841032Y-93549253D01*
X114798219Y-93577519D01*
X114783593Y-93626694D01*
X114803996Y-93673765D01*
X114824917Y-93689282D01*
X114920155Y-93736901D01*
X114924608Y-93737413D01*
X114928044Y-93740296D01*
X114953696Y-93744819D01*
X115144172Y-93744819D01*
X115148385Y-93743285D01*
X115152746Y-93744327D01*
X115177713Y-93736901D01*
X115272951Y-93689282D01*
X115280670Y-93681128D01*
X115290975Y-93676662D01*
X115306492Y-93655741D01*
X115354111Y-93560502D01*
X115354623Y-93556048D01*
X115357506Y-93552613D01*
X115362029Y-93526961D01*
X115362029Y-93146009D01*
X115360495Y-93141795D01*
X115361537Y-93137434D01*
X115354111Y-93112468D01*
X115306492Y-93017230D01*
X115298338Y-93009510D01*
X115293872Y-92999206D01*
X115281632Y-92990128D01*
X115498883Y-92990128D01*
X115507792Y-93040652D01*
X115547092Y-93073629D01*
X115572744Y-93078152D01*
X115650277Y-93078152D01*
X115718793Y-93112410D01*
X115749200Y-93142817D01*
X115783458Y-93211333D01*
X115783458Y-93669819D01*
X115801005Y-93718028D01*
X115845434Y-93743680D01*
X115895958Y-93734771D01*
X115928935Y-93695471D01*
X115933458Y-93669819D01*
X115933458Y-93479342D01*
X116212030Y-93479342D01*
X116213563Y-93483555D01*
X116212522Y-93487916D01*
X116219948Y-93512883D01*
X116267567Y-93608121D01*
X116268755Y-93609246D01*
X116281615Y-93627612D01*
X116329234Y-93675232D01*
X116330715Y-93675922D01*
X116348727Y-93689282D01*
X116443965Y-93736901D01*
X116448418Y-93737413D01*
X116451854Y-93740296D01*
X116477506Y-93744819D01*
X116667982Y-93744819D01*
X116672195Y-93743285D01*
X116676556Y-93744327D01*
X116701523Y-93736901D01*
X116721315Y-93727004D01*
X116750196Y-93743680D01*
X116800720Y-93734771D01*
X116833697Y-93695471D01*
X116838220Y-93669819D01*
X116838220Y-92669819D01*
X116820673Y-92621610D01*
X116776244Y-92595958D01*
X116725720Y-92604867D01*
X116692743Y-92644167D01*
X116688220Y-92669819D01*
X116688220Y-92931720D01*
X116667982Y-92928152D01*
X116477506Y-92928152D01*
X116473292Y-92929685D01*
X116468931Y-92928644D01*
X116443965Y-92936070D01*
X116348727Y-92983689D01*
X116347601Y-92984878D01*
X116329235Y-92997738D01*
X116281616Y-93045357D01*
X116280925Y-93046838D01*
X116267567Y-93064849D01*
X116219948Y-93160087D01*
X116219435Y-93164540D01*
X116216553Y-93167976D01*
X116212030Y-93193628D01*
X116212030Y-93479342D01*
X115933458Y-93479342D01*
X115933458Y-93003152D01*
X115915911Y-92954943D01*
X115871482Y-92929291D01*
X115820958Y-92938200D01*
X115787981Y-92977500D01*
X115787689Y-92979153D01*
X115701523Y-92936070D01*
X115697069Y-92935557D01*
X115693634Y-92932675D01*
X115667982Y-92928152D01*
X115572744Y-92928152D01*
X115524535Y-92945699D01*
X115498883Y-92990128D01*
X115281632Y-92990128D01*
X115272951Y-92983689D01*
X115177713Y-92936070D01*
X115173259Y-92935557D01*
X115169824Y-92932675D01*
X115144172Y-92928152D01*
X114953696Y-92928152D01*
X114949482Y-92929685D01*
X114945121Y-92928644D01*
X114920155Y-92936070D01*
X114824917Y-92983689D01*
X114817197Y-92991842D01*
X114806893Y-92996309D01*
X114791376Y-93017230D01*
X114743757Y-93112468D01*
X114743244Y-93116921D01*
X114740362Y-93120357D01*
X114735839Y-93146009D01*
X114735839Y-93241247D01*
X114359496Y-93241247D01*
X114320570Y-93221784D01*
X114316116Y-93221271D01*
X114312681Y-93218389D01*
X114287029Y-93213866D01*
X114066639Y-93213866D01*
X114028696Y-93194894D01*
X114028696Y-93163714D01*
X114057216Y-93106672D01*
X114114258Y-93078152D01*
X114269324Y-93078152D01*
X114348726Y-93117853D01*
X114399692Y-93123718D01*
X114442505Y-93095452D01*
X114457132Y-93046277D01*
X114436729Y-92999206D01*
X114415808Y-92983689D01*
X114320570Y-92936070D01*
X114316116Y-92935557D01*
X114312681Y-92932675D01*
X114287029Y-92928152D01*
X114096553Y-92928152D01*
X114092339Y-92929685D01*
X114087978Y-92928644D01*
X114063012Y-92936070D01*
X113967774Y-92983689D01*
X113960054Y-92991842D01*
X113949750Y-92996309D01*
X113934233Y-93017230D01*
X113886614Y-93112468D01*
X113886101Y-93116921D01*
X113883219Y-93120357D01*
X113878696Y-93146009D01*
X113878696Y-93669819D01*
X113552505Y-93669819D01*
X113552505Y-92669819D01*
X113534958Y-92621610D01*
X113490529Y-92595958D01*
X113440005Y-92604867D01*
X113407028Y-92644167D01*
X113402505Y-92669819D01*
X113402505Y-93203038D01*
X113149586Y-92950119D01*
X113103089Y-92928438D01*
X113053535Y-92941715D01*
X113024108Y-92983741D01*
X113028580Y-93034848D01*
X113043520Y-93056185D01*
X113283238Y-93295903D01*
X113036553Y-93624819D01*
X113021665Y-93673914D01*
X112674714Y-93673914D01*
X112721014Y-93627613D01*
X112721704Y-93626131D01*
X112735063Y-93608121D01*
X112782682Y-93512883D01*
X112783194Y-93508429D01*
X112786077Y-93504994D01*
X112790600Y-93479342D01*
X112790600Y-93193628D01*
X112789066Y-93189414D01*
X112790108Y-93185053D01*
X112782682Y-93160087D01*
X112735063Y-93064849D01*
X112733873Y-93063723D01*
X112721014Y-93045357D01*
X112673395Y-92997738D01*
X112671913Y-92997047D01*
X112653903Y-92983689D01*
X112558665Y-92936070D01*
X112554211Y-92935557D01*
X112550776Y-92932675D01*
X112525124Y-92928152D01*
X112382267Y-92928152D01*
X112378053Y-92929685D01*
X112373692Y-92928644D01*
X112348726Y-92936070D01*
X112253488Y-92983689D01*
X112252362Y-92984878D01*
X112233996Y-92997738D01*
X112186377Y-93045357D01*
X112185686Y-93046838D01*
X112172328Y-93064849D01*
X112124709Y-93160087D01*
X112124196Y-93164540D01*
X112121314Y-93167976D01*
X112116791Y-93193628D01*
X112116791Y-93479342D01*
X111838219Y-93479342D01*
X111838219Y-93003152D01*
X111820672Y-92954943D01*
X111776243Y-92929291D01*
X111725719Y-92938200D01*
X111692742Y-92977500D01*
X111688219Y-93003152D01*
X111688219Y-93509256D01*
X111659698Y-93566298D01*
X111602657Y-93594819D01*
X111495210Y-93594819D01*
X111426694Y-93560561D01*
X111409648Y-93543514D01*
X111409648Y-93003152D01*
X111392101Y-92954943D01*
X111347672Y-92929291D01*
X111297148Y-92938200D01*
X111264171Y-92977500D01*
X111259648Y-93003152D01*
X111259648Y-93669819D01*
X110867478Y-93669819D01*
X110877920Y-93655741D01*
X110925539Y-93560502D01*
X110926051Y-93556048D01*
X110928934Y-93552613D01*
X110933457Y-93526961D01*
X110933457Y-93078152D01*
X111001314Y-93078152D01*
X111049523Y-93060605D01*
X111075175Y-93016176D01*
X111066266Y-92965652D01*
X111026966Y-92932675D01*
X111001314Y-92928152D01*
X110933457Y-92928152D01*
X110933457Y-92669819D01*
X110915910Y-92621610D01*
X110871481Y-92595958D01*
X110820957Y-92604867D01*
X110787980Y-92644167D01*
X110783457Y-92669819D01*
X110783457Y-92928152D01*
X110620362Y-92928152D01*
X110572153Y-92945699D01*
X110546501Y-92990128D01*
X110555410Y-93040652D01*
X110594710Y-93073629D01*
X110620362Y-93078152D01*
X110783457Y-93078152D01*
X110783457Y-93509256D01*
X110754936Y-93566298D01*
X110697895Y-93594819D01*
X110620362Y-93594819D01*
X110572153Y-93612366D01*
X110546501Y-93656795D01*
X110403644Y-93656795D01*
X110403644Y-91678866D01*
X113259649Y-91678866D01*
X113260834Y-91682123D01*
X113261888Y-91697056D01*
X113309507Y-91887532D01*
X113311495Y-91890476D01*
X113315186Y-91902883D01*
X113362805Y-91998121D01*
X113363993Y-91999246D01*
X113376853Y-92017612D01*
X113424472Y-92065232D01*
X113425953Y-92065922D01*
X113443965Y-92079282D01*
X113539203Y-92126901D01*
X113543656Y-92127413D01*
X113547092Y-92130296D01*
X113572744Y-92134819D01*
X113667982Y-92134819D01*
X113672195Y-92133285D01*
X113676556Y-92134327D01*
X113701523Y-92126901D01*
X113796761Y-92079282D01*
X113797885Y-92078094D01*
X113816254Y-92065232D01*
X113863872Y-92017613D01*
X113864562Y-92016131D01*
X113877921Y-91998121D01*
X113925540Y-91902883D01*
X113925946Y-91899354D01*
X113931219Y-91887532D01*
X113978838Y-91697056D01*
X113978477Y-91693607D01*
X113981077Y-91678866D01*
X113981077Y-91631247D01*
X114212030Y-91631247D01*
X114213215Y-91634504D01*
X114214269Y-91649437D01*
X114261888Y-91839913D01*
X114262127Y-91840268D01*
X114272245Y-91863326D01*
X114367483Y-92006183D01*
X114370299Y-92008252D01*
X114376853Y-92017612D01*
X114424472Y-92065232D01*
X114425953Y-92065922D01*
X114443965Y-92079282D01*
X114539203Y-92126901D01*
X114543656Y-92127413D01*
X114547092Y-92130296D01*
X114572744Y-92134819D01*
X114763220Y-92134819D01*
X114811429Y-92117272D01*
X114837081Y-92072843D01*
X114828172Y-92022319D01*
X114788872Y-91989342D01*
X114763220Y-91984819D01*
X114590449Y-91984819D01*
X114549971Y-91964580D01*
X115164411Y-91964580D01*
X115170010Y-91979963D01*
X115171437Y-91996275D01*
X115180829Y-92009689D01*
X115181958Y-92012789D01*
X115183707Y-92013798D01*
X115186377Y-92017612D01*
X115233996Y-92065232D01*
X115238060Y-92067127D01*
X115240408Y-92070948D01*
X115263313Y-92083351D01*
X115406169Y-92130970D01*
X115407804Y-92130925D01*
X115429887Y-92134819D01*
X115525125Y-92134819D01*
X115526663Y-92134258D01*
X115548842Y-92130970D01*
X115691699Y-92083351D01*
X115695211Y-92080563D01*
X115699678Y-92080173D01*
X115721015Y-92065233D01*
X115816254Y-91969993D01*
X115816945Y-91968510D01*
X115830302Y-91950502D01*
X115870882Y-91869342D01*
X116164411Y-91869342D01*
X116165944Y-91873555D01*
X116164903Y-91877916D01*
X116172329Y-91902883D01*
X116219948Y-91998121D01*
X116221136Y-91999246D01*
X116233996Y-92017612D01*
X116281615Y-92065232D01*
X116283096Y-92065922D01*
X116301108Y-92079282D01*
X116396346Y-92126901D01*
X116400799Y-92127413D01*
X116404235Y-92130296D01*
X116429887Y-92134819D01*
X116667982Y-92134819D01*
X116669520Y-92134258D01*
X116691699Y-92130970D01*
X116834556Y-92083351D01*
X116874742Y-92051460D01*
X116885028Y-92001199D01*
X116860599Y-91956085D01*
X116812887Y-91937228D01*
X116787121Y-91941049D01*
X116655812Y-91984819D01*
X116447592Y-91984819D01*
X116379076Y-91950561D01*
X116348669Y-91920153D01*
X116314411Y-91851637D01*
X116314411Y-91791809D01*
X116348669Y-91723293D01*
X116379076Y-91692886D01*
X116456063Y-91654392D01*
X116638553Y-91608770D01*
X116641497Y-91606781D01*
X116653904Y-91603091D01*
X116749142Y-91555472D01*
X116750267Y-91554282D01*
X116768634Y-91541423D01*
X116816253Y-91493804D01*
X116816944Y-91492322D01*
X116830302Y-91474312D01*
X116877921Y-91379074D01*
X116878433Y-91374620D01*
X116881316Y-91371185D01*
X116885839Y-91345533D01*
X116885839Y-91250295D01*
X116884305Y-91246081D01*
X116885347Y-91241720D01*
X116877921Y-91216754D01*
X116830302Y-91121516D01*
X116829112Y-91120390D01*
X116816253Y-91102024D01*
X116768634Y-91054405D01*
X116767152Y-91053714D01*
X116749142Y-91040356D01*
X116653904Y-90992737D01*
X116649450Y-90992224D01*
X116646015Y-90989342D01*
X116620363Y-90984819D01*
X116382268Y-90984819D01*
X116380730Y-90985378D01*
X116358550Y-90988668D01*
X116215694Y-91036287D01*
X116175508Y-91068178D01*
X116165222Y-91118439D01*
X116189651Y-91163553D01*
X116237362Y-91182410D01*
X116263128Y-91178589D01*
X116394438Y-91134819D01*
X116602658Y-91134819D01*
X116671174Y-91169077D01*
X116701581Y-91199484D01*
X116735839Y-91268000D01*
X116735839Y-91327828D01*
X116701581Y-91396344D01*
X116671174Y-91426751D01*
X116594187Y-91465244D01*
X116411697Y-91510867D01*
X116408752Y-91512855D01*
X116396346Y-91516546D01*
X116301108Y-91564165D01*
X116299982Y-91565354D01*
X116281616Y-91578214D01*
X116233997Y-91625833D01*
X116233306Y-91627314D01*
X116219948Y-91645325D01*
X116172329Y-91740563D01*
X116171816Y-91745016D01*
X116168934Y-91748452D01*
X116164411Y-91774104D01*
X116164411Y-91869342D01*
X115870882Y-91869342D01*
X115877921Y-91855264D01*
X115878327Y-91851735D01*
X115883600Y-91839913D01*
X115931219Y-91649437D01*
X115930858Y-91645988D01*
X115933458Y-91631247D01*
X115933458Y-91488390D01*
X115932272Y-91485132D01*
X115931219Y-91470200D01*
X115883600Y-91279724D01*
X115881611Y-91276779D01*
X115877921Y-91264373D01*
X115830302Y-91169135D01*
X115829115Y-91168011D01*
X115816253Y-91149643D01*
X115721015Y-91054405D01*
X115716951Y-91052510D01*
X115714604Y-91048689D01*
X115691699Y-91036287D01*
X115548842Y-90988668D01*
X115547207Y-90988712D01*
X115525125Y-90984819D01*
X115382268Y-90984819D01*
X115378054Y-90986352D01*
X115373693Y-90985311D01*
X115348727Y-90992737D01*
X115253489Y-91040356D01*
X115218217Y-91077610D01*
X115215142Y-91128821D01*
X115245706Y-91170026D01*
X115295604Y-91181946D01*
X115320571Y-91174520D01*
X115399973Y-91134819D01*
X115512955Y-91134819D01*
X115627468Y-91172990D01*
X115701581Y-91247103D01*
X115740074Y-91324090D01*
X115783458Y-91497624D01*
X115783458Y-91622013D01*
X115740074Y-91795547D01*
X115701580Y-91872534D01*
X115627468Y-91946647D01*
X115512955Y-91984819D01*
X115442057Y-91984819D01*
X115327544Y-91946648D01*
X115314411Y-91933514D01*
X115314411Y-91706247D01*
X115429887Y-91706247D01*
X115478096Y-91688700D01*
X115503748Y-91644271D01*
X115494839Y-91593747D01*
X115455539Y-91560770D01*
X115429887Y-91556247D01*
X115239411Y-91556247D01*
X115221102Y-91562910D01*
X115201911Y-91566295D01*
X115197560Y-91571479D01*
X115191202Y-91573794D01*
X115181459Y-91590667D01*
X115168934Y-91605595D01*
X115167216Y-91615337D01*
X115165550Y-91618223D01*
X115166128Y-91621505D01*
X115164411Y-91631247D01*
X115164411Y-91964580D01*
X114549971Y-91964580D01*
X114521933Y-91950561D01*
X114488171Y-91916798D01*
X114404259Y-91790929D01*
X114385735Y-91716833D01*
X114443965Y-91745948D01*
X114448418Y-91746460D01*
X114451854Y-91749343D01*
X114477506Y-91753866D01*
X114667982Y-91753866D01*
X114672195Y-91752332D01*
X114676556Y-91753374D01*
X114701523Y-91745948D01*
X114796761Y-91698329D01*
X114797886Y-91697139D01*
X114816253Y-91684280D01*
X114863872Y-91636661D01*
X114864563Y-91635179D01*
X114877921Y-91617169D01*
X114925540Y-91521931D01*
X114926052Y-91517477D01*
X114928935Y-91514042D01*
X114933458Y-91488390D01*
X114933458Y-91250295D01*
X114931924Y-91246081D01*
X114932966Y-91241720D01*
X114925540Y-91216754D01*
X114877921Y-91121516D01*
X114876731Y-91120390D01*
X114863872Y-91102024D01*
X114816253Y-91054405D01*
X114814771Y-91053714D01*
X114796761Y-91040356D01*
X114701523Y-90992737D01*
X114697069Y-90992224D01*
X114693634Y-90989342D01*
X114667982Y-90984819D01*
X114477506Y-90984819D01*
X114473292Y-90986352D01*
X114468931Y-90985311D01*
X114443965Y-90992737D01*
X114348727Y-91040356D01*
X114347601Y-91041545D01*
X114329235Y-91054405D01*
X114281616Y-91102024D01*
X114280925Y-91103505D01*
X114267567Y-91121516D01*
X114219948Y-91216754D01*
X114219435Y-91221207D01*
X114216553Y-91224643D01*
X114212030Y-91250295D01*
X114212030Y-91631247D01*
X113981077Y-91631247D01*
X113981077Y-91440771D01*
X113979891Y-91437513D01*
X113978838Y-91422581D01*
X113931219Y-91232105D01*
X113929230Y-91229160D01*
X113925540Y-91216754D01*
X113877921Y-91121516D01*
X113876731Y-91120390D01*
X113863872Y-91102024D01*
X113816253Y-91054405D01*
X113814771Y-91053714D01*
X113796761Y-91040356D01*
X113701523Y-90992737D01*
X113697069Y-90992224D01*
X113693634Y-90989342D01*
X113667982Y-90984819D01*
X113572744Y-90984819D01*
X113568530Y-90986352D01*
X113564169Y-90985311D01*
X113539203Y-90992737D01*
X113443965Y-91040356D01*
X113442839Y-91041545D01*
X113424473Y-91054405D01*
X113376854Y-91102024D01*
X113376163Y-91103505D01*
X113362805Y-91121516D01*
X113315186Y-91216754D01*
X113314779Y-91220282D01*
X113309507Y-91232105D01*
X113261888Y-91422581D01*
X113262248Y-91426029D01*
X113259649Y-91440771D01*
X113259649Y-91678866D01*
X110403644Y-91678866D01*
X110403644Y-90841962D01*
X117028696Y-90841962D01*
X117028696Y-93887676D01*
G37*
%LPC*%
D11*
%TO.C,M1*%
X103200000Y-95300000D03*
D12*
X103200000Y-98800000D03*
X103200000Y-91800000D03*
%TD*%
D13*
%TO.C,J1*%
X108800000Y-97840000D03*
X108800000Y-95300000D03*
D14*
X108800000Y-92760000D03*
%TD*%
%LPD*%
M02*
