%TF.GenerationSoftware,KiCad,Pcbnew,7.0.11-7.0.11~ubuntu22.04.1*%
%TF.CreationDate,2024-03-05T10:23:26-06:00*%
%TF.ProjectId,sg90-breakout,73673930-2d62-4726-9561-6b6f75742e6b,rev?*%
%TF.SameCoordinates,Original*%
%TF.FileFunction,Copper,L2,Bot*%
%TF.FilePolarity,Positive*%
%FSLAX46Y46*%
G04 Gerber Fmt 4.6, Leading zero omitted, Abs format (unit mm)*
G04 Created by KiCad (PCBNEW 7.0.11-7.0.11~ubuntu22.04.1) date 2024-03-05 10:23:26*
%MOMM*%
%LPD*%
G01*
G04 APERTURE LIST*
G04 Aperture macros list*
%AMRoundRect*
0 Rectangle with rounded corners*
0 $1 Rounding radius*
0 $2 $3 $4 $5 $6 $7 $8 $9 X,Y pos of 4 corners*
0 Add a 4 corners polygon primitive as box body*
4,1,4,$2,$3,$4,$5,$6,$7,$8,$9,$2,$3,0*
0 Add four circle primitives for the rounded corners*
1,1,$1+$1,$2,$3*
1,1,$1+$1,$4,$5*
1,1,$1+$1,$6,$7*
1,1,$1+$1,$8,$9*
0 Add four rect primitives between the rounded corners*
20,1,$1+$1,$2,$3,$4,$5,0*
20,1,$1+$1,$4,$5,$6,$7,0*
20,1,$1+$1,$6,$7,$8,$9,0*
20,1,$1+$1,$8,$9,$2,$3,0*%
G04 Aperture macros list end*
%TA.AperFunction,ComponentPad*%
%ADD10C,4.400000*%
%TD*%
%TA.AperFunction,ComponentPad*%
%ADD11O,3.000000X1.600000*%
%TD*%
%TA.AperFunction,ComponentPad*%
%ADD12R,1.700000X1.700000*%
%TD*%
%TA.AperFunction,ComponentPad*%
%ADD13O,1.700000X1.700000*%
%TD*%
%TA.AperFunction,SMDPad,CuDef*%
%ADD14RoundRect,0.150000X-0.625000X0.150000X-0.625000X-0.150000X0.625000X-0.150000X0.625000X0.150000X0*%
%TD*%
%TA.AperFunction,SMDPad,CuDef*%
%ADD15RoundRect,0.250000X-0.650000X0.350000X-0.650000X-0.350000X0.650000X-0.350000X0.650000X0.350000X0*%
%TD*%
%TA.AperFunction,ViaPad*%
%ADD16C,0.800000*%
%TD*%
%TA.AperFunction,Conductor*%
%ADD17C,0.500000*%
%TD*%
%TA.AperFunction,Conductor*%
%ADD18C,0.400000*%
%TD*%
G04 APERTURE END LIST*
D10*
%TO.P,M1,*%
%TO.N,*%
X103200000Y-95300000D03*
D11*
%TO.P,M1,1,+*%
%TO.N,/motp*%
X103200000Y-98800000D03*
%TO.P,M1,2,-*%
%TO.N,/motn*%
X103200000Y-91800000D03*
%TD*%
D12*
%TO.P,J1,1,Pin_1*%
%TO.N,Net-(J1-Pin_1)*%
X108800000Y-92760000D03*
D13*
%TO.P,J1,2,Pin_2*%
%TO.N,Net-(J1-Pin_2)*%
X108800000Y-95300000D03*
%TO.P,J1,3,Pin_3*%
%TO.N,GND*%
X108800000Y-97840000D03*
%TD*%
D14*
%TO.P,J3,1,Pin_1*%
%TO.N,Net-(J1-Pin_1)*%
X111600000Y-93300000D03*
%TO.P,J3,2,Pin_2*%
%TO.N,Net-(J1-Pin_2)*%
X111600000Y-94300000D03*
%TO.P,J3,3,Pin_3*%
%TO.N,GND*%
X111600000Y-95300000D03*
%TO.P,J3,4,Pin_4*%
%TO.N,/motn*%
X111600000Y-96300000D03*
%TO.P,J3,5,Pin_5*%
%TO.N,/motp*%
X111600000Y-97300000D03*
D15*
%TO.P,J3,MP,MountPin*%
%TO.N,GND*%
X115475000Y-92000000D03*
X115475000Y-98600000D03*
%TD*%
D16*
%TO.N,/motn*%
X110400000Y-98100000D03*
%TO.N,/motp*%
X111500000Y-98300000D03*
X111500000Y-99100000D03*
%TD*%
D17*
%TO.N,Net-(J1-Pin_1)*%
X109340000Y-93300000D02*
X108800000Y-92760000D01*
X111500000Y-93300000D02*
X109340000Y-93300000D01*
%TO.N,Net-(J1-Pin_2)*%
X109800000Y-94300000D02*
X108800000Y-95300000D01*
X111500000Y-94300000D02*
X109800000Y-94300000D01*
D18*
%TO.N,/motn*%
X111600000Y-96300000D02*
X110825001Y-96300000D01*
D17*
X111900000Y-96300000D02*
X111125001Y-96300000D01*
D18*
X110400000Y-96725001D02*
X110400000Y-98100000D01*
X110825001Y-96300000D02*
X110400000Y-96725001D01*
D17*
%TO.N,/motp*%
X111500000Y-99100000D02*
X111500000Y-97600000D01*
X111500000Y-98500000D02*
X111500000Y-98300000D01*
X103600000Y-99200000D02*
X110800000Y-99200000D01*
X111500000Y-98300000D02*
X111500000Y-99100000D01*
X111900000Y-97900000D02*
X111900000Y-97300000D01*
X110800000Y-99200000D02*
X111500000Y-98500000D01*
X111900000Y-97300000D02*
X111900000Y-98700000D01*
X111900000Y-98700000D02*
X111500000Y-99100000D01*
X103200000Y-98800000D02*
X103600000Y-99200000D01*
X110800000Y-99200000D02*
X111400000Y-99200000D01*
X111400000Y-99200000D02*
X111500000Y-99100000D01*
X111500000Y-98300000D02*
X111900000Y-97900000D01*
X111500000Y-97600000D02*
X111200000Y-97300000D01*
%TD*%
%TA.AperFunction,Conductor*%
%TO.N,GND*%
G36*
X116943039Y-90919685D02*
G01*
X116988794Y-90972489D01*
X117000000Y-91024000D01*
X117000000Y-99576000D01*
X116980315Y-99643039D01*
X116927511Y-99688794D01*
X116876000Y-99700000D01*
X112292765Y-99700000D01*
X112225726Y-99680315D01*
X112179971Y-99627511D01*
X112170027Y-99558353D01*
X112187771Y-99510028D01*
X112225788Y-99449523D01*
X112225789Y-99449522D01*
X112285368Y-99279255D01*
X112285793Y-99275480D01*
X112286748Y-99273207D01*
X112286917Y-99272468D01*
X112287046Y-99272497D01*
X112312856Y-99211066D01*
X112318599Y-99204499D01*
X112365865Y-99154165D01*
X112368578Y-99151367D01*
X112388911Y-99131035D01*
X112391606Y-99127560D01*
X112399199Y-99118669D01*
X112430448Y-99085393D01*
X112440674Y-99066790D01*
X112451353Y-99050533D01*
X112464362Y-99033764D01*
X112482491Y-98991866D01*
X112487620Y-98981395D01*
X112509627Y-98941368D01*
X112514905Y-98920806D01*
X112521207Y-98902399D01*
X112529635Y-98882927D01*
X112536777Y-98837825D01*
X112539140Y-98826418D01*
X112550500Y-98782177D01*
X112550500Y-98760949D01*
X112552027Y-98741549D01*
X112555346Y-98720595D01*
X112551050Y-98675147D01*
X112550500Y-98663478D01*
X112550500Y-97960948D01*
X112552024Y-97941567D01*
X112552980Y-97935528D01*
X112582900Y-97872393D01*
X112600524Y-97856114D01*
X112617922Y-97842922D01*
X112709361Y-97722342D01*
X112764877Y-97581564D01*
X112775500Y-97493102D01*
X112775500Y-97106898D01*
X112764877Y-97018436D01*
X112709361Y-96877658D01*
X112707290Y-96874927D01*
X112706173Y-96871989D01*
X112705205Y-96870267D01*
X112705463Y-96870121D01*
X112682466Y-96809618D01*
X112696891Y-96741254D01*
X112707291Y-96725071D01*
X112709361Y-96722342D01*
X112764877Y-96581564D01*
X112775500Y-96493102D01*
X112775500Y-96106898D01*
X112764877Y-96018436D01*
X112709361Y-95877658D01*
X112709360Y-95877657D01*
X112709360Y-95877656D01*
X112617922Y-95757077D01*
X112497343Y-95665639D01*
X112356561Y-95610122D01*
X112310926Y-95604642D01*
X112268102Y-95599500D01*
X110931898Y-95599500D01*
X110868710Y-95607087D01*
X110843434Y-95610123D01*
X110702661Y-95665637D01*
X110702655Y-95665640D01*
X110613494Y-95733253D01*
X110586025Y-95749009D01*
X110522157Y-95775465D01*
X110396719Y-95871716D01*
X110377490Y-95896775D01*
X110366799Y-95908965D01*
X110008965Y-96266799D01*
X109996774Y-96277491D01*
X109971718Y-96296718D01*
X109947549Y-96328214D01*
X109947550Y-96328215D01*
X109875464Y-96422159D01*
X109875461Y-96422164D01*
X109814957Y-96568235D01*
X109814955Y-96568240D01*
X109794318Y-96724999D01*
X109794318Y-96725000D01*
X109798439Y-96756302D01*
X109799500Y-96772488D01*
X109799500Y-97517587D01*
X109779815Y-97584626D01*
X109772450Y-97594896D01*
X109770186Y-97597734D01*
X109674211Y-97750476D01*
X109614631Y-97920745D01*
X109614630Y-97920750D01*
X109594435Y-98099996D01*
X109594435Y-98100003D01*
X109614630Y-98279249D01*
X109614633Y-98279262D01*
X109651474Y-98384545D01*
X109655036Y-98454324D01*
X109620308Y-98514951D01*
X109558314Y-98547179D01*
X109534433Y-98549500D01*
X106524000Y-98549500D01*
X106456961Y-98529815D01*
X106411206Y-98477011D01*
X106400000Y-98425500D01*
X106400000Y-95300002D01*
X107544723Y-95300002D01*
X107563793Y-95517975D01*
X107563793Y-95517979D01*
X107620422Y-95729322D01*
X107620424Y-95729326D01*
X107620425Y-95729330D01*
X107633364Y-95757077D01*
X107712897Y-95927638D01*
X107712898Y-95927639D01*
X107838402Y-96106877D01*
X107993123Y-96261598D01*
X108172361Y-96387102D01*
X108370670Y-96479575D01*
X108582023Y-96536207D01*
X108764926Y-96552208D01*
X108799998Y-96555277D01*
X108800000Y-96555277D01*
X108800002Y-96555277D01*
X108828254Y-96552805D01*
X109017977Y-96536207D01*
X109229330Y-96479575D01*
X109427639Y-96387102D01*
X109606877Y-96261598D01*
X109761598Y-96106877D01*
X109887102Y-95927639D01*
X109979575Y-95729330D01*
X110036207Y-95517977D01*
X110055277Y-95300000D01*
X110036494Y-95085305D01*
X110050261Y-95016807D01*
X110098876Y-94966624D01*
X110160022Y-94950500D01*
X110720018Y-94950500D01*
X110765506Y-94959145D01*
X110843436Y-94989877D01*
X110931898Y-95000500D01*
X110931903Y-95000500D01*
X112268097Y-95000500D01*
X112268102Y-95000500D01*
X112356564Y-94989877D01*
X112497342Y-94934361D01*
X112617922Y-94842922D01*
X112709361Y-94722342D01*
X112764877Y-94581564D01*
X112775500Y-94493102D01*
X112775500Y-94106898D01*
X112764877Y-94018436D01*
X112709361Y-93877658D01*
X112707290Y-93874927D01*
X112706173Y-93871989D01*
X112705205Y-93870267D01*
X112705463Y-93870121D01*
X112682466Y-93809618D01*
X112696891Y-93741254D01*
X112707291Y-93725071D01*
X112709361Y-93722342D01*
X112764877Y-93581564D01*
X112775500Y-93493102D01*
X112775500Y-93106898D01*
X112764877Y-93018436D01*
X112709361Y-92877658D01*
X112709360Y-92877657D01*
X112709360Y-92877656D01*
X112617922Y-92757077D01*
X112497343Y-92665639D01*
X112356561Y-92610122D01*
X112310926Y-92604642D01*
X112268102Y-92599500D01*
X110931898Y-92599500D01*
X110898713Y-92603485D01*
X110843436Y-92610122D01*
X110793501Y-92629815D01*
X110765506Y-92640854D01*
X110720018Y-92649500D01*
X110174499Y-92649500D01*
X110107460Y-92629815D01*
X110061705Y-92577011D01*
X110050499Y-92525500D01*
X110050499Y-91878482D01*
X110050498Y-91878475D01*
X110035646Y-91784696D01*
X109978050Y-91671658D01*
X109978046Y-91671654D01*
X109978045Y-91671652D01*
X109888347Y-91581954D01*
X109888344Y-91581952D01*
X109888342Y-91581950D01*
X109811517Y-91542805D01*
X109775301Y-91524352D01*
X109681524Y-91509500D01*
X107918482Y-91509500D01*
X107837519Y-91522323D01*
X107824696Y-91524354D01*
X107711658Y-91581950D01*
X107711657Y-91581951D01*
X107711652Y-91581954D01*
X107621954Y-91671652D01*
X107621951Y-91671657D01*
X107564352Y-91784698D01*
X107549500Y-91878475D01*
X107549500Y-93641517D01*
X107560292Y-93709657D01*
X107564354Y-93735304D01*
X107621950Y-93848342D01*
X107621952Y-93848344D01*
X107621954Y-93848347D01*
X107711652Y-93938045D01*
X107711654Y-93938046D01*
X107711658Y-93938050D01*
X107824696Y-93995646D01*
X107824698Y-93995647D01*
X107918475Y-94010499D01*
X107918481Y-94010500D01*
X108068139Y-94010499D01*
X108135177Y-94030183D01*
X108180932Y-94082987D01*
X108190876Y-94152145D01*
X108161851Y-94215701D01*
X108139262Y-94236074D01*
X107993118Y-94338405D01*
X107838402Y-94493121D01*
X107712900Y-94672357D01*
X107712898Y-94672361D01*
X107620426Y-94870668D01*
X107620422Y-94870677D01*
X107563793Y-95082020D01*
X107563793Y-95082024D01*
X107544723Y-95299997D01*
X107544723Y-95300002D01*
X106400000Y-95300002D01*
X106400000Y-91024000D01*
X106419685Y-90956961D01*
X106472489Y-90911206D01*
X106524000Y-90900000D01*
X116876000Y-90900000D01*
X116943039Y-90919685D01*
G37*
%TD.AperFunction*%
%TD*%
M02*
