%TF.GenerationSoftware,KiCad,Pcbnew,7.0.11-7.0.11~ubuntu22.04.1*%
%TF.CreationDate,2024-03-05T16:07:35-06:00*%
%TF.ProjectId,sg90-breakout,73673930-2d62-4726-9561-6b6f75742e6b,rev?*%
%TF.SameCoordinates,Original*%
%TF.FileFunction,Legend,Top*%
%TF.FilePolarity,Positive*%
%FSLAX46Y46*%
G04 Gerber Fmt 4.6, Leading zero omitted, Abs format (unit mm)*
G04 Created by KiCad (PCBNEW 7.0.11-7.0.11~ubuntu22.04.1) date 2024-03-05 16:07:35*
%MOMM*%
%LPD*%
G01*
G04 APERTURE LIST*
G04 Aperture macros list*
%AMRoundRect*
0 Rectangle with rounded corners*
0 $1 Rounding radius*
0 $2 $3 $4 $5 $6 $7 $8 $9 X,Y pos of 4 corners*
0 Add a 4 corners polygon primitive as box body*
4,1,4,$2,$3,$4,$5,$6,$7,$8,$9,$2,$3,0*
0 Add four circle primitives for the rounded corners*
1,1,$1+$1,$2,$3*
1,1,$1+$1,$4,$5*
1,1,$1+$1,$6,$7*
1,1,$1+$1,$8,$9*
0 Add four rect primitives between the rounded corners*
20,1,$1+$1,$2,$3,$4,$5,0*
20,1,$1+$1,$4,$5,$6,$7,0*
20,1,$1+$1,$6,$7,$8,$9,0*
20,1,$1+$1,$8,$9,$2,$3,0*%
G04 Aperture macros list end*
%ADD10C,0.200000*%
%ADD11C,0.150000*%
%ADD12C,0.120000*%
%ADD13C,4.400000*%
%ADD14O,3.000000X1.600000*%
%ADD15R,1.700000X1.700000*%
%ADD16O,1.700000X1.700000*%
%ADD17RoundRect,0.150000X-0.625000X0.150000X-0.625000X-0.150000X0.625000X-0.150000X0.625000X0.150000X0*%
%ADD18RoundRect,0.250000X-0.650000X0.350000X-0.650000X-0.350000X0.650000X-0.350000X0.650000X0.350000X0*%
G04 APERTURE END LIST*
D10*
X101129634Y-96400000D02*
X100991250Y-96894353D01*
X100929634Y-93800000D02*
G75*
G03*
X100991250Y-96894353I2399966J-1500000D01*
G01*
X100991250Y-96894353D02*
X100429634Y-96700000D01*
D11*
G36*
X106649201Y-96314020D02*
G01*
X106679608Y-96344427D01*
X106713866Y-96412943D01*
X106713866Y-96568009D01*
X106679608Y-96636525D01*
X106649201Y-96666932D01*
X106580685Y-96701190D01*
X106378000Y-96701190D01*
X106309484Y-96666932D01*
X106279077Y-96636525D01*
X106244819Y-96568009D01*
X106244819Y-96412943D01*
X106279077Y-96344427D01*
X106309484Y-96314020D01*
X106378000Y-96279762D01*
X106580685Y-96279762D01*
X106649201Y-96314020D01*
G37*
G36*
X106953166Y-95370764D02*
G01*
X107030153Y-95409258D01*
X107060561Y-95439665D01*
X107094819Y-95508181D01*
X107094819Y-95568009D01*
X107060561Y-95636524D01*
X107030153Y-95666931D01*
X106953166Y-95705425D01*
X106779632Y-95748809D01*
X106560005Y-95748809D01*
X106386471Y-95705425D01*
X106309484Y-95666932D01*
X106279077Y-95636525D01*
X106244819Y-95568009D01*
X106244819Y-95508181D01*
X106279077Y-95439665D01*
X106309484Y-95409258D01*
X106386471Y-95370764D01*
X106560005Y-95327381D01*
X106779632Y-95327381D01*
X106953166Y-95370764D01*
G37*
G36*
X107030153Y-93694972D02*
G01*
X107060561Y-93725379D01*
X107094819Y-93793895D01*
X107094819Y-93948961D01*
X107075848Y-93986904D01*
X106597123Y-93986904D01*
X106578152Y-93948961D01*
X106578152Y-93793895D01*
X106612410Y-93725379D01*
X106642817Y-93694972D01*
X106711333Y-93660714D01*
X106961637Y-93660714D01*
X107030153Y-93694972D01*
G37*
G36*
X107030153Y-91980686D02*
G01*
X107060561Y-92011093D01*
X107094819Y-92079609D01*
X107094819Y-92187056D01*
X107060561Y-92255571D01*
X107030153Y-92285978D01*
X106961637Y-92320237D01*
X106711333Y-92320237D01*
X106642817Y-92285979D01*
X106612410Y-92255572D01*
X106578152Y-92187056D01*
X106578152Y-92079609D01*
X106612410Y-92011093D01*
X106642817Y-91980686D01*
X106711333Y-91946428D01*
X106961637Y-91946428D01*
X107030153Y-91980686D01*
G37*
G36*
X107387676Y-98946428D02*
G01*
X105951962Y-98946428D01*
X105951962Y-98538095D01*
X106094819Y-98538095D01*
X106096352Y-98542308D01*
X106095311Y-98546669D01*
X106102737Y-98571636D01*
X106150356Y-98666874D01*
X106151545Y-98667999D01*
X106164405Y-98686366D01*
X106212024Y-98733985D01*
X106213505Y-98734676D01*
X106231516Y-98748034D01*
X106326754Y-98795653D01*
X106331207Y-98796165D01*
X106334643Y-98799048D01*
X106360295Y-98803571D01*
X106455533Y-98803571D01*
X106459746Y-98802037D01*
X106464107Y-98803079D01*
X106489074Y-98795653D01*
X106584312Y-98748034D01*
X106585437Y-98746844D01*
X106603804Y-98733985D01*
X106651423Y-98686366D01*
X106652114Y-98684884D01*
X106665472Y-98666874D01*
X106713091Y-98571636D01*
X106713497Y-98568107D01*
X106718770Y-98556285D01*
X106764392Y-98373795D01*
X106802886Y-98296808D01*
X106833293Y-98266401D01*
X106901809Y-98232143D01*
X106961637Y-98232143D01*
X107030153Y-98266401D01*
X107060561Y-98296808D01*
X107094819Y-98365324D01*
X107094819Y-98573544D01*
X107051049Y-98704854D01*
X107052450Y-98756138D01*
X107086487Y-98794523D01*
X107137236Y-98802048D01*
X107180948Y-98775193D01*
X107193351Y-98752288D01*
X107240970Y-98609432D01*
X107240925Y-98607796D01*
X107244819Y-98585714D01*
X107244819Y-98347619D01*
X107243285Y-98343405D01*
X107244327Y-98339044D01*
X107236901Y-98314078D01*
X107189282Y-98218840D01*
X107188094Y-98217715D01*
X107175232Y-98199347D01*
X107127612Y-98151728D01*
X107126129Y-98151036D01*
X107108121Y-98137680D01*
X107012883Y-98090061D01*
X107008429Y-98089548D01*
X107004994Y-98086666D01*
X106979342Y-98082143D01*
X106884104Y-98082143D01*
X106879890Y-98083676D01*
X106875529Y-98082635D01*
X106850563Y-98090061D01*
X106755325Y-98137680D01*
X106754199Y-98138869D01*
X106735833Y-98151729D01*
X106688214Y-98199348D01*
X106687523Y-98200829D01*
X106674165Y-98218840D01*
X106626546Y-98314078D01*
X106626139Y-98317606D01*
X106620867Y-98329429D01*
X106575244Y-98511919D01*
X106536751Y-98588906D01*
X106506344Y-98619313D01*
X106437828Y-98653571D01*
X106378000Y-98653571D01*
X106309484Y-98619313D01*
X106279077Y-98588906D01*
X106244819Y-98520390D01*
X106244819Y-98312170D01*
X106288589Y-98180861D01*
X106287188Y-98129577D01*
X106253150Y-98091191D01*
X106202402Y-98083666D01*
X106158689Y-98110521D01*
X106146287Y-98133426D01*
X106098668Y-98276283D01*
X106098712Y-98277917D01*
X106094819Y-98300000D01*
X106094819Y-98538095D01*
X105951962Y-98538095D01*
X105951962Y-97442857D01*
X106094819Y-97442857D01*
X106095379Y-97444395D01*
X106098668Y-97466574D01*
X106146287Y-97609431D01*
X106149074Y-97612943D01*
X106149465Y-97617410D01*
X106164405Y-97638747D01*
X106259643Y-97733985D01*
X106261124Y-97734675D01*
X106279135Y-97748034D01*
X106374373Y-97795653D01*
X106377901Y-97796059D01*
X106389724Y-97801332D01*
X106580200Y-97848951D01*
X106583648Y-97848590D01*
X106598390Y-97851190D01*
X106741247Y-97851190D01*
X106744504Y-97850004D01*
X106759437Y-97848951D01*
X106949913Y-97801332D01*
X106952857Y-97799343D01*
X106965264Y-97795653D01*
X107060502Y-97748034D01*
X107061625Y-97746847D01*
X107079994Y-97733985D01*
X107175233Y-97638747D01*
X107177128Y-97634682D01*
X107180948Y-97632336D01*
X107193351Y-97609431D01*
X107240970Y-97466575D01*
X107240925Y-97464939D01*
X107244819Y-97442857D01*
X107244819Y-97347619D01*
X107244259Y-97346081D01*
X107240970Y-97323901D01*
X107193351Y-97181045D01*
X107190563Y-97177533D01*
X107190173Y-97173065D01*
X107175232Y-97151728D01*
X107127612Y-97104109D01*
X107112774Y-97097190D01*
X107100232Y-97086666D01*
X107084104Y-97083822D01*
X107081116Y-97082429D01*
X107079165Y-97082951D01*
X107074580Y-97082143D01*
X106741247Y-97082143D01*
X106722938Y-97088806D01*
X106703747Y-97092191D01*
X106699396Y-97097375D01*
X106693038Y-97099690D01*
X106683295Y-97116563D01*
X106670770Y-97131491D01*
X106669052Y-97141233D01*
X106667386Y-97144119D01*
X106667964Y-97147401D01*
X106666247Y-97157143D01*
X106666247Y-97347619D01*
X106683794Y-97395828D01*
X106728223Y-97421480D01*
X106778747Y-97412571D01*
X106811724Y-97373271D01*
X106816247Y-97347619D01*
X106816247Y-97232143D01*
X107043514Y-97232143D01*
X107056648Y-97245276D01*
X107094819Y-97359789D01*
X107094819Y-97430687D01*
X107056648Y-97545199D01*
X106982534Y-97619312D01*
X106905547Y-97657806D01*
X106732013Y-97701190D01*
X106607624Y-97701190D01*
X106434090Y-97657806D01*
X106357103Y-97619313D01*
X106282990Y-97545200D01*
X106244819Y-97430686D01*
X106244819Y-97317705D01*
X106284520Y-97238303D01*
X106290385Y-97187337D01*
X106262119Y-97144524D01*
X106212944Y-97129897D01*
X106165873Y-97150300D01*
X106150356Y-97171221D01*
X106102737Y-97266459D01*
X106102224Y-97270912D01*
X106099342Y-97274348D01*
X106094819Y-97300000D01*
X106094819Y-97442857D01*
X105951962Y-97442857D01*
X105951962Y-96585714D01*
X106094819Y-96585714D01*
X106096352Y-96589927D01*
X106095311Y-96594288D01*
X106102737Y-96619255D01*
X106150356Y-96714493D01*
X106151545Y-96715618D01*
X106164405Y-96733985D01*
X106212024Y-96781604D01*
X106213505Y-96782295D01*
X106231516Y-96795653D01*
X106326754Y-96843272D01*
X106331207Y-96843784D01*
X106334643Y-96846667D01*
X106360295Y-96851190D01*
X106598390Y-96851190D01*
X106602603Y-96849656D01*
X106606964Y-96850698D01*
X106631931Y-96843272D01*
X106727169Y-96795653D01*
X106728294Y-96794463D01*
X106746661Y-96781604D01*
X106794280Y-96733985D01*
X106794971Y-96732503D01*
X106808329Y-96714493D01*
X106855948Y-96619255D01*
X106856460Y-96614801D01*
X106859343Y-96611366D01*
X106863866Y-96585714D01*
X106863866Y-96395238D01*
X106862332Y-96391024D01*
X106863374Y-96386663D01*
X106855948Y-96361697D01*
X106826833Y-96303467D01*
X106900929Y-96321991D01*
X107026798Y-96405903D01*
X107060561Y-96439665D01*
X107094819Y-96508181D01*
X107094819Y-96680952D01*
X107112366Y-96729161D01*
X107156795Y-96754813D01*
X107207319Y-96745904D01*
X107240296Y-96706604D01*
X107244819Y-96680952D01*
X107244819Y-96490476D01*
X107243285Y-96486262D01*
X107244327Y-96481901D01*
X107236901Y-96456935D01*
X107189282Y-96361697D01*
X107188094Y-96360572D01*
X107175232Y-96342204D01*
X107127612Y-96294585D01*
X107124446Y-96293108D01*
X107116183Y-96285215D01*
X106973326Y-96189977D01*
X106972904Y-96189874D01*
X106949913Y-96179620D01*
X106759437Y-96132001D01*
X106755988Y-96132361D01*
X106741247Y-96129762D01*
X106360295Y-96129762D01*
X106356081Y-96131295D01*
X106351720Y-96130254D01*
X106326754Y-96137680D01*
X106231516Y-96185299D01*
X106230390Y-96186488D01*
X106212024Y-96199348D01*
X106164405Y-96246967D01*
X106163714Y-96248448D01*
X106150356Y-96266459D01*
X106102737Y-96361697D01*
X106102224Y-96366150D01*
X106099342Y-96369586D01*
X106094819Y-96395238D01*
X106094819Y-96585714D01*
X105951962Y-96585714D01*
X105951962Y-95585714D01*
X106094819Y-95585714D01*
X106096352Y-95589927D01*
X106095311Y-95594288D01*
X106102737Y-95619255D01*
X106150356Y-95714493D01*
X106151545Y-95715618D01*
X106164405Y-95733985D01*
X106212024Y-95781604D01*
X106213505Y-95782295D01*
X106231516Y-95795653D01*
X106326754Y-95843272D01*
X106330282Y-95843678D01*
X106342105Y-95848951D01*
X106532581Y-95896570D01*
X106536029Y-95896209D01*
X106550771Y-95898809D01*
X106788866Y-95898809D01*
X106792123Y-95897623D01*
X106807056Y-95896570D01*
X106997532Y-95848951D01*
X107000476Y-95846962D01*
X107012883Y-95843272D01*
X107108121Y-95795653D01*
X107109246Y-95794464D01*
X107127612Y-95781605D01*
X107175232Y-95733986D01*
X107175922Y-95732504D01*
X107189282Y-95714493D01*
X107236901Y-95619255D01*
X107237413Y-95614801D01*
X107240296Y-95611366D01*
X107244819Y-95585714D01*
X107244819Y-95490476D01*
X107243285Y-95486262D01*
X107244327Y-95481901D01*
X107236901Y-95456935D01*
X107189282Y-95361697D01*
X107188094Y-95360572D01*
X107175232Y-95342204D01*
X107127612Y-95294585D01*
X107126129Y-95293893D01*
X107108121Y-95280537D01*
X107012883Y-95232918D01*
X107009354Y-95232511D01*
X106997532Y-95227239D01*
X106807056Y-95179620D01*
X106803607Y-95179980D01*
X106788866Y-95177381D01*
X106550771Y-95177381D01*
X106547513Y-95178566D01*
X106532581Y-95179620D01*
X106342105Y-95227239D01*
X106339160Y-95229227D01*
X106326754Y-95232918D01*
X106231516Y-95280537D01*
X106230390Y-95281726D01*
X106212024Y-95294586D01*
X106164405Y-95342205D01*
X106163714Y-95343686D01*
X106150356Y-95361697D01*
X106102737Y-95456935D01*
X106102224Y-95461388D01*
X106099342Y-95464824D01*
X106094819Y-95490476D01*
X106094819Y-95585714D01*
X105951962Y-95585714D01*
X105951962Y-94048880D01*
X106095958Y-94048880D01*
X106104867Y-94099404D01*
X106144167Y-94132381D01*
X106169819Y-94136904D01*
X107169819Y-94136904D01*
X107218028Y-94119357D01*
X107243680Y-94074928D01*
X107234771Y-94024404D01*
X107227748Y-94018511D01*
X107236901Y-94000207D01*
X107237413Y-93995753D01*
X107240296Y-93992318D01*
X107244819Y-93966666D01*
X107244819Y-93776190D01*
X107243285Y-93771976D01*
X107244327Y-93767615D01*
X107236901Y-93742649D01*
X107189282Y-93647411D01*
X107188094Y-93646286D01*
X107175232Y-93627918D01*
X107127612Y-93580299D01*
X107126129Y-93579607D01*
X107108121Y-93566251D01*
X107012883Y-93518632D01*
X107008429Y-93518119D01*
X107004994Y-93515237D01*
X106979342Y-93510714D01*
X106693628Y-93510714D01*
X106689414Y-93512247D01*
X106685053Y-93511206D01*
X106660087Y-93518632D01*
X106564849Y-93566251D01*
X106563723Y-93567440D01*
X106545357Y-93580300D01*
X106497738Y-93627919D01*
X106497047Y-93629400D01*
X106483689Y-93647411D01*
X106436070Y-93742649D01*
X106435557Y-93747102D01*
X106432675Y-93750538D01*
X106428152Y-93776190D01*
X106428152Y-93966666D01*
X106429685Y-93970879D01*
X106428644Y-93975240D01*
X106432113Y-93986904D01*
X106169819Y-93986904D01*
X106121610Y-94004451D01*
X106095958Y-94048880D01*
X105951962Y-94048880D01*
X105951962Y-93144118D01*
X106095958Y-93144118D01*
X106104867Y-93194642D01*
X106144167Y-93227619D01*
X106169819Y-93232142D01*
X107169819Y-93232142D01*
X107218028Y-93214595D01*
X107243680Y-93170166D01*
X107234771Y-93119642D01*
X107195471Y-93086665D01*
X107169819Y-93082142D01*
X106915170Y-93082142D01*
X106903046Y-93070018D01*
X107214819Y-92836190D01*
X107242858Y-92793227D01*
X107236722Y-92742293D01*
X107199281Y-92707219D01*
X107148055Y-92704417D01*
X107124819Y-92716190D01*
X106795903Y-92962875D01*
X106556185Y-92723157D01*
X106509688Y-92701476D01*
X106460134Y-92714753D01*
X106430707Y-92756779D01*
X106435179Y-92807886D01*
X106450119Y-92829223D01*
X106703038Y-93082142D01*
X106169819Y-93082142D01*
X106121610Y-93099689D01*
X106095958Y-93144118D01*
X105951962Y-93144118D01*
X105951962Y-92204761D01*
X106428152Y-92204761D01*
X106429685Y-92208974D01*
X106428644Y-92213335D01*
X106436070Y-92238302D01*
X106483689Y-92333540D01*
X106484878Y-92334665D01*
X106497738Y-92353032D01*
X106545357Y-92400651D01*
X106546838Y-92401342D01*
X106564849Y-92414700D01*
X106660087Y-92462319D01*
X106664540Y-92462831D01*
X106667976Y-92465714D01*
X106693628Y-92470237D01*
X106979342Y-92470237D01*
X106983555Y-92468703D01*
X106987916Y-92469745D01*
X107012883Y-92462319D01*
X107108121Y-92414700D01*
X107109246Y-92413511D01*
X107127612Y-92400652D01*
X107175232Y-92353033D01*
X107175922Y-92351551D01*
X107189282Y-92333540D01*
X107236901Y-92238302D01*
X107237413Y-92233848D01*
X107240296Y-92230413D01*
X107244819Y-92204761D01*
X107244819Y-92061904D01*
X107243285Y-92057690D01*
X107244327Y-92053329D01*
X107236901Y-92028363D01*
X107189282Y-91933125D01*
X107188094Y-91932000D01*
X107175232Y-91913632D01*
X107127612Y-91866013D01*
X107126129Y-91865321D01*
X107108121Y-91851965D01*
X107012883Y-91804346D01*
X107008429Y-91803833D01*
X107004994Y-91800951D01*
X106979342Y-91796428D01*
X106693628Y-91796428D01*
X106689414Y-91797961D01*
X106685053Y-91796920D01*
X106660087Y-91804346D01*
X106564849Y-91851965D01*
X106563723Y-91853154D01*
X106545357Y-91866014D01*
X106497738Y-91913633D01*
X106497047Y-91915114D01*
X106483689Y-91933125D01*
X106436070Y-92028363D01*
X106435557Y-92032816D01*
X106432675Y-92036252D01*
X106428152Y-92061904D01*
X106428152Y-92204761D01*
X105951962Y-92204761D01*
X105951962Y-91653571D01*
X107387676Y-91653571D01*
X107387676Y-98946428D01*
G37*
X116036779Y-97654819D02*
X116036779Y-96654819D01*
X116036779Y-96654819D02*
X116417731Y-96654819D01*
X116417731Y-96654819D02*
X116512969Y-96702438D01*
X116512969Y-96702438D02*
X116560588Y-96750057D01*
X116560588Y-96750057D02*
X116608207Y-96845295D01*
X116608207Y-96845295D02*
X116608207Y-96988152D01*
X116608207Y-96988152D02*
X116560588Y-97083390D01*
X116560588Y-97083390D02*
X116512969Y-97131009D01*
X116512969Y-97131009D02*
X116417731Y-97178628D01*
X116417731Y-97178628D02*
X116036779Y-97178628D01*
X117007200Y-94934649D02*
X117054819Y-95029887D01*
X117054819Y-95029887D02*
X117054819Y-95220363D01*
X117054819Y-95220363D02*
X117007200Y-95315601D01*
X117007200Y-95315601D02*
X116959580Y-95363220D01*
X116959580Y-95363220D02*
X116864342Y-95410839D01*
X116864342Y-95410839D02*
X116578628Y-95410839D01*
X116578628Y-95410839D02*
X116483390Y-95363220D01*
X116483390Y-95363220D02*
X116435771Y-95315601D01*
X116435771Y-95315601D02*
X116388152Y-95220363D01*
X116388152Y-95220363D02*
X116388152Y-95029887D01*
X116388152Y-95029887D02*
X116435771Y-94934649D01*
X117007200Y-94077506D02*
X117054819Y-94172744D01*
X117054819Y-94172744D02*
X117054819Y-94363220D01*
X117054819Y-94363220D02*
X117007200Y-94458458D01*
X117007200Y-94458458D02*
X116959580Y-94506077D01*
X116959580Y-94506077D02*
X116864342Y-94553696D01*
X116864342Y-94553696D02*
X116578628Y-94553696D01*
X116578628Y-94553696D02*
X116483390Y-94506077D01*
X116483390Y-94506077D02*
X116435771Y-94458458D01*
X116435771Y-94458458D02*
X116388152Y-94363220D01*
X116388152Y-94363220D02*
X116388152Y-94172744D01*
X116388152Y-94172744D02*
X116435771Y-94077506D01*
X116388152Y-93744172D02*
X117054819Y-93553696D01*
X117054819Y-93553696D02*
X116578628Y-93363220D01*
X116578628Y-93363220D02*
X117054819Y-93172744D01*
X117054819Y-93172744D02*
X116388152Y-92982268D01*
X116673866Y-92601315D02*
X116673866Y-91839411D01*
X116864342Y-92029887D02*
X116673866Y-91839411D01*
X116673866Y-91839411D02*
X116483390Y-92029887D01*
X100836779Y-93454819D02*
X100836779Y-92454819D01*
X100836779Y-92454819D02*
X101217731Y-92454819D01*
X101217731Y-92454819D02*
X101312969Y-92502438D01*
X101312969Y-92502438D02*
X101360588Y-92550057D01*
X101360588Y-92550057D02*
X101408207Y-92645295D01*
X101408207Y-92645295D02*
X101408207Y-92788152D01*
X101408207Y-92788152D02*
X101360588Y-92883390D01*
X101360588Y-92883390D02*
X101312969Y-92931009D01*
X101312969Y-92931009D02*
X101217731Y-92978628D01*
X101217731Y-92978628D02*
X100836779Y-92978628D01*
X116036779Y-98954819D02*
X116036779Y-97954819D01*
X116036779Y-97954819D02*
X116608207Y-98954819D01*
X116608207Y-98954819D02*
X116608207Y-97954819D01*
X115441541Y-93988152D02*
X115632017Y-94654819D01*
X115632017Y-94654819D02*
X115822493Y-94178628D01*
X115822493Y-94178628D02*
X116012969Y-94654819D01*
X116012969Y-94654819D02*
X116203445Y-93988152D01*
X100836779Y-98254819D02*
X100836779Y-97254819D01*
X100836779Y-97254819D02*
X101408207Y-98254819D01*
X101408207Y-98254819D02*
X101408207Y-97254819D01*
X116060588Y-95202438D02*
X115965350Y-95154819D01*
X115965350Y-95154819D02*
X115822493Y-95154819D01*
X115822493Y-95154819D02*
X115679636Y-95202438D01*
X115679636Y-95202438D02*
X115584398Y-95297676D01*
X115584398Y-95297676D02*
X115536779Y-95392914D01*
X115536779Y-95392914D02*
X115489160Y-95583390D01*
X115489160Y-95583390D02*
X115489160Y-95726247D01*
X115489160Y-95726247D02*
X115536779Y-95916723D01*
X115536779Y-95916723D02*
X115584398Y-96011961D01*
X115584398Y-96011961D02*
X115679636Y-96107200D01*
X115679636Y-96107200D02*
X115822493Y-96154819D01*
X115822493Y-96154819D02*
X115917731Y-96154819D01*
X115917731Y-96154819D02*
X116060588Y-96107200D01*
X116060588Y-96107200D02*
X116108207Y-96059580D01*
X116108207Y-96059580D02*
X116108207Y-95726247D01*
X116108207Y-95726247D02*
X115917731Y-95726247D01*
X115693922Y-92654819D02*
X116265350Y-92654819D01*
X115979636Y-93654819D02*
X115979636Y-92654819D01*
D12*
%TO.C,J2*%
X113240000Y-91690000D02*
X112090000Y-91690000D01*
X112090000Y-91690000D02*
X112090000Y-92740000D01*
X112090000Y-92740000D02*
X111100000Y-92740000D01*
X113240000Y-98910000D02*
X112090000Y-98910000D01*
X112090000Y-98910000D02*
X112090000Y-97860000D01*
%TD*%
%LPC*%
D13*
%TO.C,M1*%
X103200000Y-95300000D03*
D14*
X103200000Y-91800000D03*
X103200000Y-98800000D03*
%TD*%
D15*
%TO.C,J1*%
X108800000Y-97840000D03*
D16*
X108800000Y-95300000D03*
X108800000Y-92760000D03*
%TD*%
D17*
%TO.C,J2*%
X111875000Y-93300000D03*
X111875000Y-94300000D03*
X111875000Y-95300000D03*
X111875000Y-96300000D03*
X111875000Y-97300000D03*
D18*
X114400000Y-92000000D03*
X114400000Y-98600000D03*
%TD*%
%LPD*%
M02*
